<?xml version="1.0" standalone="no"?>
<svg xmlns="http://www.w3.org/2000/svg" width="1120" height="531.9791679382324"><g transform="translate(70,20)"><g class="x axis" transform="translate(0,400)" fill="none" font-size="10" font-family="sans-serif" text-anchor="middle"><path class="domain" stroke="#000" d="M0.5,6V0.5H1000.5V6"/><g class="tick" opacity="1" transform="translate(261.904761904762,0)"><line stroke="#000" y2="6"/><text fill="#000" y="9" dy="-0.5em" dx="-.8em" style="text-anchor: end;" transform="rotate(-90)">ambient (n=7)</text></g><g class="tick" opacity="1" transform="translate(738.0952380952381,0)"><line stroke="#000" y2="6"/><text fill="#000" y="9" dy="-0.5em" dx="-.8em" style="text-anchor: end;" transform="rotate(-90)">hot (n=8)</text></g></g><g class="y axis" fill="none" font-size="10" font-family="sans-serif" text-anchor="end"><path class="domain" stroke="#000" d="M-6,400.5H0.5V0.5H-6"/><g class="tick" opacity="1" transform="translate(0,400.5)"><line stroke="#000" x2="-6"/><text fill="#000" x="-9" dy="0.32em">0.10</text></g><g class="tick" opacity="1" transform="translate(0,356.05555555555554)"><line stroke="#000" x2="-6"/><text fill="#000" x="-9" dy="0.32em">0.15</text></g><g class="tick" opacity="1" transform="translate(0,311.6111111111111)"><line stroke="#000" x2="-6"/><text fill="#000" x="-9" dy="0.32em">0.20</text></g><g class="tick" opacity="1" transform="translate(0,267.1666666666667)"><line stroke="#000" x2="-6"/><text fill="#000" x="-9" dy="0.32em">0.25</text></g><g class="tick" opacity="1" transform="translate(0,222.72222222222226)"><line stroke="#000" x2="-6"/><text fill="#000" x="-9" dy="0.32em">0.30</text></g><g class="tick" opacity="1" transform="translate(0,178.27777777777786)"><line stroke="#000" x2="-6"/><text fill="#000" x="-9" dy="0.32em">0.35</text></g><g class="tick" opacity="1" transform="translate(0,133.83333333333337)"><line stroke="#000" x2="-6"/><text fill="#000" x="-9" dy="0.32em">0.40</text></g><g class="tick" opacity="1" transform="translate(0,89.38888888888897)"><line stroke="#000" x2="-6"/><text fill="#000" x="-9" dy="0.32em">0.45</text></g><g class="tick" opacity="1" transform="translate(0,44.94444444444446)"><line stroke="#000" x2="-6"/><text fill="#000" x="-9" dy="0.32em">0.50</text></g><g class="tick" opacity="1" transform="translate(0,0.5)"><line stroke="#000" x2="-6"/><text fill="#000" x="-9" dy="0.32em">0.55</text></g></g><text class="x label" text-anchor="middle" transform="translate(500,501.9791679382324)" style="font: 12px sans-serif;">Temp</text><text class="y label" text-anchor="middle" transform="translate(-50,200)rotate(-90)" style="font: 12px sans-serif;">pielou_evenness</text><g class="outlier" transform="translate(261.904761904762,0)"/><line class="center" x1="261.904761904762" y1="371.17143724444446" x2="261.904761904762" y2="151.66050364444453" stroke-dasharray="2,2" stroke-width="1" stroke="black"/><line class="center" x1="738.0952380952381" y1="332.3220194666667" x2="738.0952380952381" y2="16.796535288888947" stroke-dasharray="2,2" stroke-width="1" stroke="black"/><g class="outlier" transform="translate(738.0952380952381,0)"/><rect class="box" x="47.619047619047706" y="232.6524034666667" width="428.57142857142856" height="91.540468" fill="white" stroke-width="1" stroke="black"/><rect class="box" x="523.8095238095239" y="102.84433946666667" width="428.57142857142856" height="116.18570564444448" fill="white" stroke-width="1" stroke="black"/><line class="median" x1="47.619047619047706" y1="317.6103386666667" x2="476.19047619047626" y2="317.6103386666667" stroke-width="1" stroke="black"/><line class="median" x1="523.8095238095239" y1="119.29592826666669" x2="952.3809523809524" y2="119.29592826666669" stroke-width="1" stroke="black"/><g class="whisker" transform="translate(154.76190476190484,0)"><line class="median" x1="0" y1="371.17143724444446" x2="214.28571428571428" y2="371.17143724444446" stroke-width="1" stroke="black"/><line class="median" x1="0" y1="151.66050364444453" x2="214.28571428571428" y2="151.66050364444453" stroke-width="1" stroke="black"/></g><g class="whisker" transform="translate(630.952380952381,0)"><line class="median" x1="0" y1="332.3220194666667" x2="214.28571428571428" y2="332.3220194666667" stroke-width="1" stroke="black"/><line class="median" x1="0" y1="16.796535288888947" x2="214.28571428571428" y2="16.796535288888947" stroke-width="1" stroke="black"/></g></g></svg>