<?xml version="1.0" standalone="no"?>
<svg xmlns="http://www.w3.org/2000/svg" width="1120" height="509.19271087646484"><g transform="translate(70,20)"><g class="x axis" transform="translate(0,400)" fill="none" font-size="10" font-family="sans-serif" text-anchor="middle"><path class="domain" stroke="#000" d="M0.5,6V0.5H1000.5V6"/><g class="tick" opacity="1" transform="translate(134.1463414634146,0)"><line stroke="#000" y2="6"/><text fill="#000" y="9" dy="-0.5em" dx="-.8em" style="text-anchor: end;" transform="rotate(-90)">A1 (n=4)</text></g><g class="tick" opacity="1" transform="translate(378.04878048780483,0)"><line stroke="#000" y2="6"/><text fill="#000" y="9" dy="-0.5em" dx="-.8em" style="text-anchor: end;" transform="rotate(-90)">A2 (n=3)</text></g><g class="tick" opacity="1" transform="translate(621.9512195121952,0)"><line stroke="#000" y2="6"/><text fill="#000" y="9" dy="-0.5em" dx="-.8em" style="text-anchor: end;" transform="rotate(-90)">H1 (n=5)</text></g><g class="tick" opacity="1" transform="translate(865.8536585365853,0)"><line stroke="#000" y2="6"/><text fill="#000" y="9" dy="-0.5em" dx="-.8em" style="text-anchor: end;" transform="rotate(-90)">H2 (n=3)</text></g></g><g class="y axis" fill="none" font-size="10" font-family="sans-serif" text-anchor="end"><path class="domain" stroke="#000" d="M-6,400.5H0.5V0.5H-6"/><g class="tick" opacity="1" transform="translate(0,400.5)"><line stroke="#000" x2="-6"/><text fill="#000" x="-9" dy="0.32em">0.10</text></g><g class="tick" opacity="1" transform="translate(0,356.05555555555554)"><line stroke="#000" x2="-6"/><text fill="#000" x="-9" dy="0.32em">0.15</text></g><g class="tick" opacity="1" transform="translate(0,311.6111111111111)"><line stroke="#000" x2="-6"/><text fill="#000" x="-9" dy="0.32em">0.20</text></g><g class="tick" opacity="1" transform="translate(0,267.1666666666667)"><line stroke="#000" x2="-6"/><text fill="#000" x="-9" dy="0.32em">0.25</text></g><g class="tick" opacity="1" transform="translate(0,222.72222222222226)"><line stroke="#000" x2="-6"/><text fill="#000" x="-9" dy="0.32em">0.30</text></g><g class="tick" opacity="1" transform="translate(0,178.27777777777786)"><line stroke="#000" x2="-6"/><text fill="#000" x="-9" dy="0.32em">0.35</text></g><g class="tick" opacity="1" transform="translate(0,133.83333333333337)"><line stroke="#000" x2="-6"/><text fill="#000" x="-9" dy="0.32em">0.40</text></g><g class="tick" opacity="1" transform="translate(0,89.38888888888897)"><line stroke="#000" x2="-6"/><text fill="#000" x="-9" dy="0.32em">0.45</text></g><g class="tick" opacity="1" transform="translate(0,44.94444444444446)"><line stroke="#000" x2="-6"/><text fill="#000" x="-9" dy="0.32em">0.50</text></g><g class="tick" opacity="1" transform="translate(0,0.5)"><line stroke="#000" x2="-6"/><text fill="#000" x="-9" dy="0.32em">0.55</text></g></g><text class="x label" text-anchor="middle" transform="translate(500,479.19271087646484)" style="font: 12px sans-serif;">Tank</text><text class="y label" text-anchor="middle" transform="translate(-50,200)rotate(-90)" style="font: 12px sans-serif;">pielou_evenness</text><g class="outlier" transform="translate(134.1463414634146,0)"/><line class="center" x1="134.1463414634146" y1="317.6103386666667" x2="134.1463414634146" y2="151.66050364444453" stroke-dasharray="2,2" stroke-width="1" stroke="black"/><line class="center" x1="378.04878048780483" y1="371.17143724444446" x2="378.04878048780483" y2="319.0318529777778" stroke-dasharray="2,2" stroke-width="1" stroke="black"/><line class="center" x1="621.9512195121952" y1="116.63820888888893" x2="621.9512195121952" y2="100.82366906666675" stroke-dasharray="2,2" stroke-width="1" stroke="black"/><line class="center" x1="865.8536585365853" y1="332.3220194666667" x2="865.8536585365853" y2="121.95364764444446" stroke-dasharray="2,2" stroke-width="1" stroke="black"/><g class="outlier" transform="translate(378.04878048780483,0)"/><g class="outlier" transform="translate(621.9512195121952,0)"><circle r="4" stroke-width="1" stroke="black" stroke-opacity="0.3" fill="black" fill-opacity="0.33" cx="0" cy="186.10248204444449"/><circle r="4" stroke-width="1" stroke="black" stroke-opacity="0.3" fill="black" fill-opacity="0.33" cx="0" cy="16.796535288888947"/></g><g class="outlier" transform="translate(865.8536585365853,0)"/><rect class="box" x="24.390243902438954" y="194.2839700444445" width="219.51219512195127" height="77.72837568888886" fill="white" stroke-width="1" stroke="black"/><rect class="box" x="268.29268292682923" y="324.1928714666667" width="219.51219512195127" height="26.069792133333294" fill="white" stroke-width="1" stroke="black"/><rect class="box" x="512.1951219512196" y="100.82366906666675" width="219.51219512195127" height="15.814539822222173" fill="white" stroke-width="1" stroke="black"/><rect class="box" x="756.0975609756097" y="219.8831909777778" width="219.51219512195127" height="105.18418591111114" fill="white" stroke-width="1" stroke="black"/><line class="median" x1="24.390243902438954" y1="232.6524034666667" x2="243.90243902439022" y2="232.6524034666667" stroke-width="1" stroke="black"/><line class="median" x1="268.29268292682923" y1="329.3538899555556" x2="487.8048780487805" y2="329.3538899555556" stroke-width="1" stroke="black"/><line class="median" x1="512.1951219512196" y1="103.5178962666667" x2="731.7073170731708" y2="103.5178962666667" stroke-width="1" stroke="black"/><line class="median" x1="756.0975609756097" y1="317.8127343111111" x2="975.6097560975609" y2="317.8127343111111" stroke-width="1" stroke="black"/><g class="whisker" transform="translate(79.26829268292677,0)"><line class="median" x1="0" y1="317.6103386666667" x2="109.75609756097563" y2="317.6103386666667" stroke-width="1" stroke="black"/><line class="median" x1="0" y1="151.66050364444453" x2="109.75609756097563" y2="151.66050364444453" stroke-width="1" stroke="black"/></g><g class="whisker" transform="translate(323.17073170731703,0)"><line class="median" x1="0" y1="371.17143724444446" x2="109.75609756097563" y2="371.17143724444446" stroke-width="1" stroke="black"/><line class="median" x1="0" y1="319.0318529777778" x2="109.75609756097563" y2="319.0318529777778" stroke-width="1" stroke="black"/></g><g class="whisker" transform="translate(567.0731707317074,0)"><line class="median" x1="0" y1="116.63820888888893" x2="109.75609756097563" y2="116.63820888888893" stroke-width="1" stroke="black"/><line class="median" x1="0" y1="100.82366906666675" x2="109.75609756097563" y2="100.82366906666675" stroke-width="1" stroke="black"/></g><g class="whisker" transform="translate(810.9756097560975,0)"><line class="median" x1="0" y1="332.3220194666667" x2="109.75609756097563" y2="332.3220194666667" stroke-width="1" stroke="black"/><line class="median" x1="0" y1="121.95364764444446" x2="109.75609756097563" y2="121.95364764444446" stroke-width="1" stroke="black"/></g></g></svg>