<svg xmlns="http://www.w3.org/2000/svg" viewBox="-548 -383 1096 766" width="1096" height="766" style="background-color: rgb(255, 255, 255);"><rect id="background" height="766" width="1096" y="-383" x="-548" stroke-width="0" stroke="#000000" fill="#ffffff"/><text x="430.6332198607124" y="291.24833948054146" z="-0.9948493208759919" font-family="Verdana" font-size="13" fill="rgb(0,0,0)">Axis 1 (70.27 %)</text><text x="-405.1790913157966" y="-282.4856605194586" z="-0.9948493208759919" font-family="Verdana" font-size="13" fill="rgb(0,0,0)">Axis 2 (12.43 %)</text><path d="M430.6332198607124,291.24833948054146L-405.1790913157966,291.24833948054146M-405.1790913157966,-282.4856605194586L-405.1790913157966,291.24833948054146M-405.1790913157966,291.24833948054146L-405.1790913157966,291.24833948054146" style="fill:none;stroke:rgb(0,0,0);stroke-opacity:1;stroke-width:3;stroke-linecap:round"/><path d="M148.68955756751905,-225.76713500864696L148.54428523039124,-215.0138182255721L159.27047912999083,-215.21399550761433z" style="fill:rgb(182,167,26);fill-opacity:1"/><path d="M148.54362537905985,-216.0475189823373L148.69932271432373,-205.30423975769125L159.26137383451754,-215.8959986692771z" style="fill:rgb(190,174,27);fill-opacity:1"/><path d="M149.39759327357245,-205.31376704173272L149.54286561070026,-216.06708382480758L138.8166717111007,-215.86690654276535z" style="fill:rgb(168,153,24);fill-opacity:1"/><path d="M149.54352546203165,-215.03338306804238L149.38782812676777,-225.77666229268843L138.825777006574,-215.18490338110257z" style="fill:rgb(160,146,23);fill-opacity:1"/><path d="M-384.58563665288744,-43.971895981626844L-390.1303435308839,-42.884365293417375L-388.06910554353146,-42.8977501592053z" style="fill:rgb(3,0,4);fill-opacity:1"/><path d="M-386.52879307870097,-43.941881777086415L-383.02246744560597,-42.76241550438695L-380.9866318756166,-43.049714152776154z" style="fill:rgb(5,0,7);fill-opacity:1"/><path d="M-381.86763248275304,-43.31226223550435L-383.9745831432924,-43.21583399085342L-378.06754371838224,-40.480452597123765z" style="fill:rgb(19,0,24);fill-opacity:1"/><path d="M-393.0578968356174,-28.19856569954661L-389.18329005446833,-25.215147186537752L-387.17203189271305,-25.698275986384616z" style="fill:rgb(16,0,20);fill-opacity:1"/><path d="M-388.0670506662142,-25.84406440199554L-390.13350002121035,-25.779338084363218L-384.5845350398783,-24.74312377534223z" style="fill:rgb(7,0,9);fill-opacity:1"/><path d="M-380.9757490577849,-25.787993715119644L-383.0454783104085,-25.858680610610655L-386.5166650317301,-24.719851935970688z" style="fill:rgb(9,0,11);fill-opacity:1"/><path d="M-388.5190557273637,-43.74680153534277L-393.0942610165566,-40.645249910131334L-389.9502230756949,-40.584556973498124z" style="fill:rgb(14,0,17);fill-opacity:1"/><path d="M-378.6783621585595,-41.41301878638855L-381.7805301004874,-41.26265954582158L-376.22759245593323,-37.22797649413105z" style="fill:rgb(29,0,36);fill-opacity:1"/><path d="M-394.9004825660371,-31.46993931818416L-392.3892593207738,-27.18832921467248L-389.34675152543525,-27.55861433675271z" style="fill:rgb(23,0,28);fill-opacity:1"/><path d="M-378.0126178667468,-28.00700949447296L-381.22550379972927,-28.20484156950674L-382.5213166411352,-24.932078212998587z" style="fill:rgb(22,0,27);fill-opacity:1"/><path d="M-385.08350577830413,-44.36229479118863L-389.07112263727737,-42.855688769620656L-385.0433374443471,-42.53602787344023z" style="fill:rgb(13,0,16);fill-opacity:1"/><path d="M-386.02292090583194,-44.40008920590382L-386.0443894828207,-42.41679538772775L-382.057701878645,-42.93712684061795z" style="fill:rgb(14,0,17);fill-opacity:1"/><path d="M-385.04582385371214,-26.19328539183082L-389.07704874605236,-25.807725931447564L-385.0750932601641,-24.365514938422603z" style="fill:rgb(17,0,21);fill-opacity:1"/><path d="M-382.0544722487288,-25.88240374210538L-386.34076666959504,-26.102821305833707L-385.72977334897377,-24.381301213761898z" style="fill:rgb(17,0,22);fill-opacity:1"/><path d="M-392.0084320788408,-41.886301015726964L-394.9863203799289,-37.45173886416309L-391.07854005057027,-37.524601758329375z" style="fill:rgb(21,0,26);fill-opacity:1"/><path d="M-395.3720798664901,-35.20369762098486L-394.60654736654044,-30.17734872454557L-390.8401278870774,-30.50498276769657z" style="fill:rgb(26,0,32);fill-opacity:1"/><path d="M-376.4660711254767,-38.43528573537875L-380.29154576651644,-38.28616241918236L-375.74660611512536,-33.51306042816243z" style="fill:rgb(35,0,43);fill-opacity:1"/><path d="M-376.11386126350243,-31.180620362454707L-380.087062517068,-31.241070842608174L-379.0487618373161,-26.83620485266822z" style="fill:rgb(31,0,38);fill-opacity:1"/><path d="M-394.3760884729156,-38.85818257707033L-395.5176941801776,-33.77804000060604L-391.4295085922849,-34.011166137673044z" style="fill:rgb(25,0,31);fill-opacity:1"/><path d="M-375.5674423138145,-34.84053487758513L-379.7140272704317,-34.76191461773209L-376.718217297602,-29.870699485283914z" style="fill:rgb(35,0,44);fill-opacity:1"/><path d="M-387.2185818215603,-43.347892544468536L-389.4994215002354,-43.49304808500783L-390.75388023863906,-40.16760819400517z" style="fill:rgb(14,0,17);fill-opacity:1"/><path d="M-383.83518954939194,-43.56547429109167L-380.9921801412925,-40.53181978020545L-377.9827116879854,-40.879314347675106z" style="fill:rgb(19,0,24);fill-opacity:1"/><path d="M-390.0837155002705,-28.089007694441314L-393.1391929951038,-27.927627475352335L-387.2899882531822,-25.12729410718464z" style="fill:rgb(16,0,20);fill-opacity:1"/><path d="M-380.30497882095864,-28.527547977299683L-383.8666455113668,-25.23194433320309L-381.6794702344661,-25.352496561966205z" style="fill:rgb(22,0,27);fill-opacity:1"/><path d="M-389.598307514787,-44.47835392452901L-395.14301439278347,-43.39082323631955L-393.081776405431,-43.404208102107475z" style="fill:rgb(3,0,4);fill-opacity:1"/><path d="M-391.5414639406005,-44.44833971998857L-388.03513830750546,-43.26887344728914L-385.9993027375161,-43.55617209567833z" style="fill:rgb(5,0,7);fill-opacity:1"/><path d="M-386.88030334465253,-43.81872017840652L-388.9872540051919,-43.72229193375559L-383.08021458028173,-40.98691054002594z" style="fill:rgb(19,0,24);fill-opacity:1"/><path d="M-398.0705676975168,-28.705023642448786L-394.1959609163679,-25.721605129439915L-392.1847027546126,-26.20473392928679z" style="fill:rgb(16,0,20);fill-opacity:1"/><path d="M-393.07972152811374,-26.350522344897712L-395.1461708831099,-26.28579602726539L-389.59720590177784,-25.249581718244407z" style="fill:rgb(7,0,9);fill-opacity:1"/><path d="M-385.9884199196844,-26.294451658021817L-388.058149172308,-26.36513855351282L-391.52933589362965,-25.226309878872872z" style="fill:rgb(9,0,11);fill-opacity:1"/><path d="M-382.8627787841045,-43.37499461507516L-386.5193802613393,-43.19587695528678L-380.0560553887219,-40.437677253119595z" style="fill:rgb(43,0,54);fill-opacity:1"/><path d="M-391.06595703970027,-28.260101676138856L-388.2207623794235,-25.27189476841136L-384.5980442739368,-25.57999242791876z" style="fill:rgb(44,0,54);fill-opacity:1"/><path d="M-389.5147824122659,-41.427643425468034L-392.8387925027895,-41.4563237654782L-391.74644196741133,-37.01968763539494z" style="fill:rgb(21,0,26);fill-opacity:1"/><path d="M-381.48517539627767,-41.72747548537512L-379.7074280971485,-37.3929442810318L-375.99841734682417,-37.742221871812504z" style="fill:rgb(29,0,36);fill-opacity:1"/><path d="M-391.3656974076112,-31.229502941423743L-395.12740139362455,-31.04740662295156L-389.63885848574023,-26.9809864933558z" style="fill:rgb(23,0,28);fill-opacity:1"/><path d="M-379.32877702211727,-31.705645756847147L-381.5699755320055,-27.170549882129325L-378.32420869063697,-27.340687230632877z" style="fill:rgb(31,0,38);fill-opacity:1"/><path d="M-393.53172658926326,-44.25325947824495L-398.106931878456,-41.15170785303349L-394.96289393759446,-41.091014916400304z" style="fill:rgb(14,0,17);fill-opacity:1"/><path d="M-383.691033020459,-41.91947672929072L-386.79320096238695,-41.76911748872375L-381.2402633178328,-37.734434437033215z" style="fill:rgb(29,0,36);fill-opacity:1"/><path d="M-399.9131534279367,-31.976397261086312L-397.4019301826732,-27.69478715757464L-394.3594223873348,-28.065072279654892z" style="fill:rgb(23,0,28);fill-opacity:1"/><path d="M-383.0252887286463,-28.513467437375127L-386.2381746616288,-28.71129951240891L-387.53398750303467,-25.438536155900756z" style="fill:rgb(22,0,27);fill-opacity:1"/><path d="M-385.0355612694656,-43.513162562765714L-389.00584955175515,-43.29156826874016L-385.1565550387079,-40.20381799197566z" style="fill:rgb(41,0,51);fill-opacity:1"/><path d="M-385.9434081848194,-28.538704307530033L-386.0443894828207,-25.09664846771736L-382.1372145996575,-25.476636097221586z" style="fill:rgb(46,0,57);fill-opacity:1"/><path d="M-391.72827604739945,-34.85127340666102L-395.7887383630059,-34.69904255180823L-391.2698003051933,-29.92283302213188z" style="fill:rgb(26,0,32);fill-opacity:1"/><path d="M-391.0892086156355,-38.43269887329281L-395.00223378593273,-38.34903448510623L-391.9818501077717,-33.45277522432451z" style="fill:rgb(25,0,31);fill-opacity:1"/><path d="M-379.8451796193549,-38.797281730311816L-379.347710064376,-33.7673222613639L-375.343273727897,-34.0827847236737z" style="fill:rgb(35,0,43);fill-opacity:1"/><path d="M-379.1180111717591,-35.27443611374758L-379.99108681967584,-30.17785283967122L-376.1405876264515,-30.433740159808192z" style="fill:rgb(35,0,44);fill-opacity:1"/><path d="M-390.0961766402037,-44.8687527340908L-394.0837934991769,-43.36214671252283L-390.05600830624667,-43.042485816342406z" style="fill:rgb(13,0,16);fill-opacity:1"/><path d="M-391.0355917677315,-44.90654714880598L-391.05706034472024,-42.923253330629926L-387.0703727405445,-43.44358478352013z" style="fill:rgb(14,0,17);fill-opacity:1"/><path d="M-390.0584947156117,-26.699743334732993L-394.0897196079519,-26.314183874349737L-390.0877641220637,-24.87197288132478z" style="fill:rgb(17,0,21);fill-opacity:1"/><path d="M-387.0671431106283,-26.38886168500755L-391.3534375314946,-26.60927924873588L-390.7424442108733,-24.887759156664078z" style="fill:rgb(17,0,22);fill-opacity:1"/><path d="M-397.0211029407402,-42.39275895862914L-399.9989912418285,-37.958196807065264L-396.0912109124698,-38.031059701231534z" style="fill:rgb(21,0,26);fill-opacity:1"/><path d="M-381.4787419873763,-38.941743678280915L-385.3042166284159,-38.792620362084534L-380.7592769770248,-34.019518371064606z" style="fill:rgb(35,0,43);fill-opacity:1"/><path d="M-400.38475072838946,-35.71015556388703L-399.61921822844005,-30.68380666744773L-395.852798748977,-31.011440710598727z" style="fill:rgb(26,0,32);fill-opacity:1"/><path d="M-381.126532125402,-31.687078305356874L-385.0997333789674,-31.74752878551034L-384.0614326992156,-27.34266279557038z" style="fill:rgb(31,0,38);fill-opacity:1"/><path d="M-399.38875933481523,-39.36464051997249L-400.53036504207705,-34.28449794350821L-396.4421794541843,-34.51762408057522z" style="fill:rgb(25,0,31);fill-opacity:1"/><path d="M-380.580113175714,-35.346992820487294L-384.7266981323312,-35.26837256063426L-381.73088815950155,-30.377157428186077z" style="fill:rgb(35,0,44);fill-opacity:1"/><path d="M-388.1029348219761,-43.686436534830726L-391.1028908660786,-40.60422656780349L-384.6789380050059,-40.685945316338014z" style="fill:rgb(41,0,51);fill-opacity:1"/><path d="M-380.01937880537315,-28.084646760003448L-386.4693727554396,-28.00336175323908L-382.9494628733529,-25.05592076373576z" style="fill:rgb(46,0,57);fill-opacity:1"/><path d="M-392.23125268345984,-43.85435048737071L-394.512092362135,-43.99950602791L-395.7665511005386,-40.67406613690734z" style="fill:rgb(14,0,17);fill-opacity:1"/><path d="M-388.84786041129144,-44.07193223399385L-386.0048510031921,-41.03827772310762L-382.9953825498849,-41.38577229057728z" style="fill:rgb(19,0,24);fill-opacity:1"/><path d="M-395.09638636217005,-28.59546563734348L-398.15186385700326,-28.434085418254504L-392.3026591150817,-25.63375205008681z" style="fill:rgb(16,0,20);fill-opacity:1"/><path d="M-385.3176496828582,-29.034005920201857L-388.8793163732663,-25.738402276105255L-386.6921410963656,-25.85895450486838z" style="fill:rgb(22,0,27);fill-opacity:1"/><path d="M-386.00491011147864,-43.729196319942126L-386.05100845012987,-40.42851565830291L-379.91877266887263,-40.81889644072719z" style="fill:rgb(43,0,54);fill-opacity:1"/><path d="M-385.0460518500981,-28.225229395408718L-391.2061780944712,-27.9076704397857L-385.09605695217573,-25.01102944178387z" style="fill:rgb(44,0,54);fill-opacity:1"/><path d="M-380.563811710739,-41.44120553247509L-386.5082269386598,-41.19017800384225L-378.7790556508568,-37.27227129002384z" style="fill:rgb(64,0,79);fill-opacity:1"/><path d="M-392.33756826725244,-31.44332150630785L-390.5244972765779,-27.2229335203829L-384.60981828314044,-27.5506278429186z" style="fill:rgb(63,0,78);fill-opacity:1"/><path d="M-396.0786279015998,-28.766559619041022L-393.23343324132304,-25.778352711313534L-389.61071513583636,-26.086450370820934z" style="fill:rgb(44,0,54);fill-opacity:1"/><path d="M-387.875449646004,-43.88145255797734L-391.53205112323883,-43.70233489818895L-385.06872625062147,-40.94413519602176z" style="fill:rgb(43,0,54);fill-opacity:1"/><path d="M-394.52745327416545,-41.93410136837021L-397.8514633646889,-41.962781708380376L-396.7591128293109,-37.526145578297104z" style="fill:rgb(21,0,26);fill-opacity:1"/><path d="M-386.4978462581772,-42.23393342827729L-384.72009895904796,-37.899402223933976L-381.0110882087237,-38.24867981471467z" style="fill:rgb(29,0,36);fill-opacity:1"/><path d="M-396.37836826951076,-31.735960884325905L-400.1400722555241,-31.553864565853722L-394.6515293476398,-27.487444436257967z" style="fill:rgb(23,0,28);fill-opacity:1"/><path d="M-384.3414478840167,-32.212103699749306L-386.58264639390507,-27.677007825031502L-383.33687955253646,-27.847145173535036z" style="fill:rgb(31,0,38);fill-opacity:1"/><path d="M-390.4375312527861,-41.719100668914635L-392.3897553378117,-37.45288401546649L-384.644597236373,-37.6906569538383z" style="fill:rgb(61,0,75);fill-opacity:1"/><path d="M-378.7223890283978,-31.22105684412608L-386.485161382973,-31.01919232411136L-380.6435438888848,-27.017646889493665z" style="fill:rgb(66,0,82);fill-opacity:1"/><path d="M-390.95607904671897,-29.045162250432195L-391.05706034472024,-25.603106410619535L-387.149885461557,-25.98309404012376z" style="fill:rgb(46,0,57);fill-opacity:1"/><path d="M-390.0482321313651,-44.01962050566789L-394.0185204136547,-43.79802621164233L-390.16922590060744,-40.710275934877835z" style="fill:rgb(41,0,51);fill-opacity:1"/><path d="M-396.1018794775351,-38.93915681619498L-400.0149046478323,-38.85549242800839L-396.99452096967116,-33.95923316722668z" style="fill:rgb(25,0,31);fill-opacity:1"/><path d="M-384.8578504812543,-39.30373967321399L-384.3603809262755,-34.27378020426607L-380.3559445897965,-34.589242666575856z" style="fill:rgb(35,0,43);fill-opacity:1"/><path d="M-396.7409469092989,-35.35773134956319L-400.8014092249054,-35.20550049471041L-396.28247116709287,-30.429290965034042z" style="fill:rgb(26,0,32);fill-opacity:1"/><path d="M-384.1306820336587,-35.78089405664975L-385.0037576815752,-30.68431078257338L-381.15325848835107,-30.940198102710358z" style="fill:rgb(35,0,44);fill-opacity:1"/><path d="M-385.04340840346146,-41.48144738985501L-391.17195921610494,-41.23444524698138L-385.13291927717864,-37.18776218950478z" style="fill:rgb(61,0,75);fill-opacity:1"/><path d="M-385.96866960178187,-31.545422851631375L-386.05100845012987,-27.172249547311136L-379.9550131785694,-27.49921047066684z" style="fill:rgb(66,0,82);fill-opacity:1"/><path d="M-393.11560568387563,-44.1928944777329L-396.11556172797816,-41.11068451070566L-389.6916088669054,-41.19240325924019z" style="fill:rgb(41,0,51);fill-opacity:1"/><path d="M-385.0320496672727,-28.591104702905618L-391.4820436173392,-28.509819696141243L-387.9621337352524,-25.56237870663793z" style="fill:rgb(46,0,57);fill-opacity:1"/><path d="M-385.99587287102173,-41.71521777796752L-386.0521712398333,-37.39985255265666L-378.4898480225325,-37.74757130759525z" style="fill:rgb(64,0,79);fill-opacity:1"/><path d="M-378.98900203841924,-38.4370769762868L-386.50046400024405,-38.16530444823598L-378.4202930392284,-33.632127158200774z" style="fill:rgb(75,1,93);fill-opacity:1"/><path d="M-392.68755467145354,-35.0933890015545L-392.10612214142253,-30.2304199290763L-384.6195422364587,-30.562220182596196z" style="fill:rgb(72,1,89);fill-opacity:1"/><path d="M-385.04681378347505,-31.266253856613325L-392.63182386888553,-30.97492508097222L-385.10644834147826,-27.016717120145557z" style="fill:rgb(63,0,78);fill-opacity:1"/><path d="M-391.0175809733782,-44.2356542628443L-391.0636793120294,-40.93497360120509L-384.9314435307722,-41.32535438362936z" style="fill:rgb(43,0,54);fill-opacity:1"/><path d="M-390.05872271199763,-28.731687338310884L-396.2188489563708,-28.414128382687867L-390.1087278140753,-25.517487384686042z" style="fill:rgb(44,0,54);fill-opacity:1"/><path d="M-378.35265368853646,-34.84805890470579L-386.4934940671468,-34.59153055860305L-379.06361132220843,-30.033559517292307z" style="fill:rgb(76,1,94);fill-opacity:1"/><path d="M-392.0332374537333,-38.69833077859865L-392.75024272495165,-33.82143508001782L-384.6297388706498,-34.12762285673294zM-385.04594412851003,-38.44048063078571L-392.61709099737254,-38.178650425977175L-385.12205086795626,-33.61537752596067z" style="fill:rgb(71,1,88);fill-opacity:1"/><path d="M-385.98047950804346,-35.11413338438058L-386.0521712398333,-30.225612817908384L-378.5052413855108,-30.546282910938032z" style="fill:rgb(76,1,94);fill-opacity:1"/><path d="M-385.57648257263855,-41.947663475377254L-391.52089780055934,-41.696635946744415L-383.7917265127562,-37.77872923292602z" style="fill:rgb(64,0,79);fill-opacity:1"/><path d="M-397.350239129152,-31.949779449210013L-395.53716813847745,-27.729391463285065L-389.62248914504,-28.057085785820767z" style="fill:rgb(63,0,78);fill-opacity:1"/><path d="M-385.9885517305512,-38.68755849556998L-386.0524130826007,-33.81581180071393L-377.99239119496536,-34.1440184190655z" style="fill:rgb(75,1,93);fill-opacity:1"/><path d="M-385.0468304594452,-34.85337395772636L-393.12859705574,-34.578184580861844L-385.11419460392386,-30.041590442012936z" style="fill:rgb(72,1,89);fill-opacity:1"/><path d="M-395.45020211468557,-42.225558611816815L-397.4024261997113,-37.959341958368654L-389.65726809827254,-38.197114896740466z" style="fill:rgb(61,0,75);fill-opacity:1"/><path d="M-383.73505989029724,-31.727514787028234L-391.49783224487254,-31.52565026701352L-385.65621475078433,-27.52410483239584z" style="fill:rgb(66,0,82);fill-opacity:1"/><path d="M-390.056079265361,-41.98790533275719L-396.1846300780045,-41.740903189883554L-390.1455901390782,-37.69422013240695z" style="fill:rgb(61,0,75);fill-opacity:1"/><path d="M-390.9813404636814,-32.05188079453354L-391.0636793120294,-27.678707490213302L-384.96768404046895,-28.005668413569005z" style="fill:rgb(66,0,82);fill-opacity:1"/><path d="M-391.0085437329213,-42.22167572086969L-391.06484210173284,-37.90631049555883L-383.50251888443194,-38.25402925049742z" style="fill:rgb(64,0,79);fill-opacity:1"/><path d="M-384.0016729003187,-38.94353491918896L-391.5131348621436,-38.671762391138145L-383.4329639011279,-34.13858510110294z" style="fill:rgb(75,1,93);fill-opacity:1"/><path d="M-397.700225533353,-35.599846944456665L-397.1187930033221,-30.73687787197846L-389.63221309835825,-31.068678125498355z" style="fill:rgb(72,1,89);fill-opacity:1"/><path d="M-390.0594846453746,-31.772711799515488L-397.6444947307851,-31.481383023874383L-390.1191192033778,-27.523175063047724z" style="fill:rgb(63,0,78);fill-opacity:1"/><path d="M-397.04590831563286,-39.20478872150082L-397.7629135868511,-34.32789302291999L-389.64240973254937,-34.63408079963511z" style="fill:rgb(71,1,88);fill-opacity:1"/><path d="M-383.36532455043596,-35.354516847607954L-391.50616492904635,-35.097988501505206L-384.07628218410787,-30.540017460194473z" style="fill:rgb(76,1,94);fill-opacity:1"/><path d="M-390.0586149904096,-38.94693857368787L-397.6297618592721,-38.68510836887934L-390.1347217298558,-34.121835468862834z" style="fill:rgb(71,1,88);fill-opacity:1"/><path d="M-390.993150369943,-35.620591327282746L-391.06484210173284,-30.732070760810547L-383.5179122474102,-31.052740853840195z" style="fill:rgb(76,1,94);fill-opacity:1"/><path d="M-391.00122259245074,-39.19401643847215L-391.06508394450026,-34.3222697436161L-383.00506205686486,-34.65047636196767z" style="fill:rgb(75,1,93);fill-opacity:1"/><path d="M-390.0595013213447,-35.35983190062853L-398.1412679176394,-35.08464252376402L-390.1268654658234,-30.548048384915095z" style="fill:rgb(72,1,89);fill-opacity:1"/><path d="M249.3061246560654,-137.3093267371011L249.1608523189376,-126.55600995402622L259.88704621853725,-126.75618723606843z" style="fill:rgb(182,167,26);fill-opacity:1"/><path d="M249.1601924676062,-127.58971071079141L249.3158898028701,-116.84643148614536L259.877940923064,-127.4381903977312z" style="fill:rgb(190,174,27);fill-opacity:1"/><path d="M250.01416036211882,-116.85595877018682L250.15943269924662,-127.60927555326168L239.43323879964703,-127.40909827121948z" style="fill:rgb(168,153,24);fill-opacity:1"/><path d="M250.160092550578,-126.5755747964965L250.00439521531413,-137.31885402114256L239.44234409512032,-126.7270951095567z" style="fill:rgb(160,146,23);fill-opacity:1"/><path d="M-388.57338696210996,-46.407084452378044L-385.06706132901485,-45.227618179678586L-383.0312257590256,-45.51491682806782z" style="fill:rgb(21,19,3);fill-opacity:1"/><path d="M-383.91222636616203,-45.777464910795985L-386.0191770267013,-45.68103666614506L-380.1121376017911,-42.945655272415415z" style="fill:rgb(73,66,10);fill-opacity:1"/><path d="M-390.11164454962324,-28.309267077287178L-392.1780939046193,-28.24454075965486L-386.6291289232873,-27.208326450633884z" style="fill:rgb(27,24,3);fill-opacity:1"/><path d="M-383.0203429411939,-28.253196390411286L-385.0900721938174,-28.323883285902287L-388.5612589151391,-27.18505461126235z" style="fill:rgb(34,31,5);fill-opacity:1"/><path d="M-386.63023053629644,-46.43709865691848L-392.17493741429286,-45.34956796870902L-390.1136994269405,-45.36295283449695z" style="fill:rgb(14,13,2);fill-opacity:1"/><path d="M-395.1024907190264,-30.663768374838245L-391.22788393787727,-27.68034986182937L-389.2166257761221,-28.163478661676287z" style="fill:rgb(63,57,9);fill-opacity:1"/><path d="M-390.56364961077264,-46.212004210634404L-395.13885489996557,-43.11045258542298L-391.9948169591039,-43.04975964878977z" style="fill:rgb(52,47,7);fill-opacity:1"/><path d="M-380.72295604196836,-43.8782214616802L-383.8251239838964,-43.72786222111323L-378.2721863393423,-39.69317916942267z" style="fill:rgb(110,101,16);fill-opacity:1"/><path d="M-396.94507644944605,-33.9351419934758L-394.4338532041828,-29.653531889964114L-391.39134540884424,-30.023817012044347z" style="fill:rgb(87,79,12);fill-opacity:1"/><path d="M-380.05721175015566,-30.472212169764592L-383.27009768313826,-30.67004424479838L-384.56591052454417,-27.397280888290236z" style="fill:rgb(84,76,12);fill-opacity:1"/><path d="M-387.1280996617131,-46.827497466480274L-391.1157165206864,-45.3208914449123L-387.0879313277561,-45.001230548731876z" style="fill:rgb(51,46,7);fill-opacity:1"/><path d="M-388.06751478924093,-46.86529188119545L-388.0889833662297,-44.881998063019395L-384.10229576205387,-45.4023295159096z" style="fill:rgb(54,49,7);fill-opacity:1"/><path d="M-387.09041773712113,-28.658488067122462L-391.1216426294614,-28.272928606739203L-387.1196871435731,-26.830717613714256z" style="fill:rgb(64,58,9);fill-opacity:1"/><path d="M-384.0990661321377,-28.347606417397017L-388.38536055300403,-28.56802398112535L-387.77436723238276,-26.846503889053555z" style="fill:rgb(67,61,9);fill-opacity:1"/><path d="M-394.0530259622498,-44.351503691018614L-397.0309142633378,-39.91694153945472L-393.1231339339792,-39.98980443362101z" style="fill:rgb(80,73,11);fill-opacity:1"/><path d="M-378.5106650088858,-40.90048841067038L-382.33613964992537,-40.751365094474004L-377.7911999985343,-35.97826310345408z" style="fill:rgb(130,119,19);fill-opacity:1"/><path d="M-397.4166737498991,-37.66890029627649L-396.6511412499494,-32.64255139983721L-392.88472177048635,-32.97018544298821z" style="fill:rgb(98,89,14);fill-opacity:1"/><path d="M-378.15845514691154,-33.645823037746354L-382.1316564004769,-33.70627351789981L-381.0933557207249,-29.301407527959853z" style="fill:rgb(117,107,17);fill-opacity:1"/><path d="M-396.4206823563245,-41.32338525236196L-397.5622880635866,-36.2432426758977L-393.47410247569394,-36.47636881296468z" style="fill:rgb(95,87,13);fill-opacity:1"/><path d="M-377.6120361972235,-37.30573755287677L-381.7586211538406,-37.227117293023746L-378.76281118101105,-32.33590216057554z" style="fill:rgb(133,121,19);fill-opacity:1"/><path d="M-389.26317570496934,-45.813095219760186L-391.54401538364436,-45.958250760299464L-392.79847412204805,-42.63281086929681z" style="fill:rgb(52,47,7);fill-opacity:1"/><path d="M-385.8797834328008,-46.030676966383325L-383.0367740247015,-42.99702245549708L-380.02730557139427,-43.34451702296675z" style="fill:rgb(73,66,10);fill-opacity:1"/><path d="M-382.34957270436763,-30.992750652591322L-385.91123939477563,-27.69714700849471L-383.7240641178752,-27.81769923725787z" style="fill:rgb(84,76,12);fill-opacity:1"/><path d="M-392.1283093836795,-30.554210369732957L-395.1837868785128,-30.392830150643974L-389.3345821365912,-27.592496782476278z" style="fill:rgb(63,57,9);fill-opacity:1"/><path d="M-384.90737266751336,-45.84019729036682L-388.5639741447483,-45.66107963057842L-382.1006492721309,-42.902879928411224z" style="fill:rgb(163,149,23);fill-opacity:1"/><path d="M-393.11055092310926,-30.7253043514305L-390.26535626283254,-27.737097443703L-386.6426381573458,-28.045195103210403z" style="fill:rgb(165,151,24);fill-opacity:1"/><path d="M-391.55937629567495,-43.892846100759684L-394.8833863861985,-43.92152644076984L-393.7910358508202,-39.48489031068657z" style="fill:rgb(80,73,11);fill-opacity:1"/><path d="M-383.52976927968666,-44.19267816066676L-381.75202198055746,-39.858146956323445L-378.0430112302332,-40.20742454710414z" style="fill:rgb(110,101,16);fill-opacity:1"/><path d="M-393.41029129102014,-33.69470561671538L-397.1719952770335,-33.5126092982432L-391.6834523691492,-29.446189168647436z" style="fill:rgb(87,79,12);fill-opacity:1"/><path d="M-381.3733709055262,-34.170848432138776L-383.6145694154145,-29.635752557420975L-380.36880257404584,-29.80588990592451z" style="fill:rgb(117,107,17);fill-opacity:1"/><path d="M-387.08015515287457,-45.97836523805736L-391.0504434351642,-45.7567709440318L-387.2011489221169,-42.669020667267304z" style="fill:rgb(154,141,22);fill-opacity:1"/><path d="M-387.9880020682284,-31.003906982821665L-388.0889833662297,-27.561851143009008L-384.1818084830664,-27.94183877251323z" style="fill:rgb(174,159,25);fill-opacity:1"/><path d="M-393.13380249904446,-40.89790154858444L-397.04682766934167,-40.81423716039787L-394.0264439911807,-35.91797789961615z" style="fill:rgb(95,87,13);fill-opacity:1"/><path d="M-381.88977350276383,-41.26248440560345L-381.39230394778485,-36.23252493665554L-377.387867611306,-36.54798739896535z" style="fill:rgb(130,119,19);fill-opacity:1"/><path d="M-393.7728699308085,-37.316476081952665L-397.8333322464149,-37.164245227099876L-393.3143941886022,-32.38803569742352z" style="fill:rgb(98,89,14);fill-opacity:1"/><path d="M-381.162605055168,-37.73963878903923L-382.0356807030848,-32.64305551496285L-378.18518150986057,-32.898942835099824z" style="fill:rgb(133,121,19);fill-opacity:1"/><path d="M-390.1475287053851,-46.151639210122376L-393.1474847494876,-43.06942924309512L-386.72353188841487,-43.15114799162966z" style="fill:rgb(154,141,22);fill-opacity:1"/><path d="M-382.06397268878214,-30.549849435295098L-388.5139666388486,-30.468564428530712L-384.9940567567618,-27.5211234390274z" style="fill:rgb(174,159,25);fill-opacity:1"/><path d="M-388.04950399488763,-46.19439899523377L-388.09560233353886,-42.893718333594556L-381.9633665522816,-43.28409911601883z" style="fill:rgb(163,149,23);fill-opacity:1"/><path d="M-387.0906457335071,-30.690432070700357L-393.2507719778802,-30.37287311507734L-387.1406508355847,-27.47623211707551z" style="fill:rgb(165,151,24);fill-opacity:1"/><path d="M-379.0263107366716,-47.53745802270338L-384.571017614668,-46.449927334493914L-382.5097796273156,-46.46331220028184z" style="fill:rgb(14,13,2);fill-opacity:1"/><path d="M-387.4985709194015,-31.764127740623138L-383.6239641382524,-28.78070922761428L-381.6127059764972,-29.263838027461162z" style="fill:rgb(63,57,9);fill-opacity:1"/><path d="M-380.9694671624851,-47.50744381816294L-377.46314152939004,-46.3279775454635L-375.4273059594007,-46.6152761938527z" style="fill:rgb(21,19,3);fill-opacity:1"/><path d="M-376.30830656653717,-46.87782427658089L-378.4152572270765,-46.78139603192996L-372.5082178021663,-44.046014638200305z" style="fill:rgb(73,66,10);fill-opacity:1"/><path d="M-382.5077247499983,-29.409626443072074L-384.5741741049944,-29.344900125439754L-379.0252091236624,-28.308685816418773z" style="fill:rgb(27,24,3);fill-opacity:1"/><path d="M-375.41642314156906,-29.35355575619618L-377.4861523941926,-29.424242651687184L-380.95733911551423,-28.285413977047238z" style="fill:rgb(34,31,5);fill-opacity:1"/><path d="M-382.608405594148,-43.90640820776673L-388.5528208220688,-43.65538067913389L-380.8236495342657,-39.73747396531547z" style="fill:rgb(241,220,35);fill-opacity:1"/><path d="M-394.3821621506614,-33.90852418159949L-392.5690911599869,-29.688136195674534L-386.65441216654943,-30.01583051821024z" style="fill:rgb(236,215,34);fill-opacity:1"/><path d="M-380.76698291180674,-33.68625951941771L-388.529755266382,-33.484394999402994L-382.68813777229377,-29.482849564785308z" style="fill:rgb(248,227,36);fill-opacity:1"/><path d="M-392.482125136195,-44.184303344206285L-394.43434922122066,-39.91808669075812L-386.689191119782,-40.155859629129935z" style="fill:rgb(229,209,33);fill-opacity:1"/><path d="M-382.9597298111478,-47.3123635764193L-387.5349351003407,-44.21081195120788L-384.39089715947904,-44.15011901457466z" style="fill:rgb(52,47,7);fill-opacity:1"/><path d="M-373.11903624234355,-44.97858082746509L-376.2212041842716,-44.82822158689812L-370.66826653971737,-40.79353853520758z" style="fill:rgb(110,101,16);fill-opacity:1"/><path d="M-389.3411566498212,-35.0355013592607L-386.82993340455795,-30.753891255749007L-383.7874256092194,-31.124176377829233z" style="fill:rgb(87,79,12);fill-opacity:1"/><path d="M-372.45329195053085,-31.572571535549493L-375.66617788351346,-31.770403610583266L-376.9619907249193,-28.497640254075122z" style="fill:rgb(84,76,12);fill-opacity:1"/><path d="M-387.08800228687045,-43.946650065146656L-393.21655309951393,-43.69964792227302L-387.17751316058764,-39.65296486479642z" style="fill:rgb(229,209,33);fill-opacity:1"/><path d="M-388.01326348519086,-34.010625526923015L-388.09560233353886,-29.637452222602775L-381.9996070619784,-29.964413145958478z" style="fill:rgb(248,227,36);fill-opacity:1"/><path d="M-379.52417986208826,-47.92785683226517L-383.5117967210615,-46.421250810697195L-379.48401152813125,-46.10158991451677z" style="fill:rgb(51,46,7);fill-opacity:1"/><path d="M-380.46359498961607,-47.96565124698035L-380.4850635666048,-45.98235742880429L-376.49837596242907,-46.502688881694496z" style="fill:rgb(54,49,7);fill-opacity:1"/><path d="M-379.48649793749627,-29.758847432907356L-383.5177228298365,-29.3732879725241L-379.51576734394826,-27.931076979499146z" style="fill:rgb(64,58,9);fill-opacity:1"/><path d="M-376.4951463325129,-29.447965783181914L-380.7814407533792,-29.668383346910243L-380.1704474327579,-27.946863254838444z" style="fill:rgb(67,61,9);fill-opacity:1"/><path d="M-370.9067452092608,-42.00084777645528L-374.7322198503005,-41.8517244602589L-370.1872801989095,-37.07862246923896z" style="fill:rgb(130,119,19);fill-opacity:1"/><path d="M-370.55453534728656,-34.74618240353124L-374.52773660085205,-34.8066328836847L-373.48943592110015,-30.40176689374475z" style="fill:rgb(117,107,17);fill-opacity:1"/><path d="M-386.44910616262496,-45.45186305680351L-389.42699446371296,-41.017300905239615L-385.51921413435434,-41.09016379940591z" style="fill:rgb(80,73,11);fill-opacity:1"/><path d="M-389.8127539502742,-38.76925966206137L-389.0472214503245,-33.742910765622106L-385.2808019708615,-34.0705448087731z" style="fill:rgb(98,89,14);fill-opacity:1"/><path d="M-381.0335959218282,-40.902279651578425L-388.54505788365304,-40.630507123527615L-380.4648869226373,-36.097329833492424z" style="fill:rgb(282,257,41);fill-opacity:1"/><path d="M-387.09140766688404,-33.73145653190496L-394.67641775229447,-33.440127756263855L-387.15104222488725,-29.481919795437193z" style="fill:rgb(236,215,34);fill-opacity:1"/><path d="M-388.0404667544307,-44.18042045325916L-388.0967651232423,-39.8650552279483L-380.53444190594143,-40.21277398288689z" style="fill:rgb(241,220,35);fill-opacity:1"/><path d="M-394.7321485548626,-37.55859167684614L-394.1507160248314,-32.69562260436794L-386.6641361198677,-33.02742285788783z" style="fill:rgb(270,246,39);fill-opacity:1"/><path d="M-388.81676255669964,-42.423744618146856L-389.95836826396175,-37.34360204168258L-385.8701826760691,-37.57672817874956z" style="fill:rgb(95,87,13);fill-opacity:1"/><path d="M-370.00811639759866,-38.40609691866165L-374.1547013542158,-38.32747665880862L-371.1588913813861,-33.43626152636045z" style="fill:rgb(133,121,19);fill-opacity:1"/><path d="M-384.52438958405463,-31.654569735517835L-387.57986707888796,-31.49318951642887L-381.7306623369663,-28.692856148261175z" style="fill:rgb(63,57,9);fill-opacity:1"/><path d="M-381.6592559053444,-46.913454585545075L-383.9400955840195,-47.05861012608436L-385.1945543224232,-43.733170235081715z" style="fill:rgb(52,47,7);fill-opacity:1"/><path d="M-378.275863633176,-47.13103633216822L-375.4328542250767,-44.09738182128198L-372.42338577176946,-44.444876388751645z" style="fill:rgb(73,66,10);fill-opacity:1"/><path d="M-374.7456529047428,-32.093110018376215L-378.30731959515083,-28.79750637427961L-376.1201443182503,-28.918058603042752z" style="fill:rgb(84,76,12);fill-opacity:1"/><path d="M-394.0778313371422,-41.16353345389029L-394.7948366083607,-36.286637755309464L-386.6743327540588,-36.59282553202458z" style="fill:rgb(267,244,39);fill-opacity:1"/><path d="M-380.39724757194534,-37.31326157999742L-388.5380879505558,-37.05673323389468L-381.10820520561737,-32.498762192583946z" style="fill:rgb(284,260,41);fill-opacity:1"/><path d="M-387.090538011919,-40.90568330607734L-394.6616848807815,-40.64385310126881L-387.16664475136525,-36.0805802012523z" style="fill:rgb(267,244,39);fill-opacity:1"/><path d="M-388.02507339145245,-37.579336059672215L-388.0967651232423,-32.69081549320002L-380.5498352689197,-33.01148558622967z" style="fill:rgb(284,260,41);fill-opacity:1"/><path d="M-388.0331456139602,-41.15276117086161L-388.0970069660097,-36.281014476005566L-380.03698507837424,-36.60922109435715z" style="fill:rgb(282,257,41);fill-opacity:1"/><path d="M-387.09142434285417,-37.318576633018L-395.173190939149,-37.04338725615349L-387.15878848733286,-32.50679311730457z" style="fill:rgb(270,246,39);fill-opacity:1"/><path d="M-377.30345286788855,-46.94055665615171L-380.9600543451234,-46.761438996363324L-374.4967294725061,-44.00323929419611z" style="fill:rgb(163,149,23);fill-opacity:1"/><path d="M-385.5066311234844,-31.82566371721538L-382.6614364632076,-28.837456809487897L-379.03871835772094,-29.145554468995297z" style="fill:rgb(165,151,24);fill-opacity:1"/><path d="M-375.92584948006186,-45.293037526451656L-374.1481021809326,-40.95850632210834L-370.4390914306083,-41.307783912889036z" style="fill:rgb(110,101,16);fill-opacity:1"/><path d="M-385.8063714913953,-34.79506498250027L-389.5680754774086,-34.612968664028095L-384.07953256952436,-30.54654853443232z" style="fill:rgb(87,79,12);fill-opacity:1"/><path d="M-373.76945110590134,-35.271207797923665L-376.0106496157897,-30.73611192320586L-372.76488277442104,-30.906249271709406z" style="fill:rgb(117,107,17);fill-opacity:1"/><path d="M-383.9554564960501,-44.99320546654458L-387.2794665865736,-45.021885806554735L-386.18711605119535,-40.58524967647147z" style="fill:rgb(80,73,11);fill-opacity:1"/><path d="M-379.4762353532497,-47.078724603842254L-383.4465236355393,-46.8571303098167L-379.597229122492,-43.7693800330522z" style="fill:rgb(154,141,22);fill-opacity:1"/><path d="M-380.38408226860355,-32.10426634860656L-380.4850635666048,-28.662210508793898L-376.5778886834416,-29.042198138298122z" style="fill:rgb(174,159,25);fill-opacity:1"/><path d="M-385.5298826994196,-41.99826091436934L-389.4429078697168,-41.91459652618277L-386.42252419155585,-37.01833726540103z" style="fill:rgb(95,87,13);fill-opacity:1"/><path d="M-374.28585370313897,-42.36284377138835L-373.78838414816005,-37.33288430244042L-369.7839478116811,-37.64834676475023z" style="fill:rgb(130,119,19);fill-opacity:1"/><path d="M-373.5586852555432,-38.83999815482411L-374.4317609034599,-33.74341488074774L-370.58126171023565,-33.99930220088473z" style="fill:rgb(133,121,19);fill-opacity:1"/><path d="M-386.16895013118364,-38.41683544773755L-390.22941244679004,-38.26460459288476L-385.71047438897733,-33.48839506320841z" style="fill:rgb(98,89,14);fill-opacity:1"/><path d="M-374.46005288915734,-31.650208801079984L-380.91004683922375,-31.5689237943156L-377.390136957137,-28.62148280481229z" style="fill:rgb(174,159,25);fill-opacity:1"/><path d="M-382.5436089057602,-47.251998575907265L-385.54356494986274,-44.169788608880026L-379.11961208879,-44.25150735741455z" style="fill:rgb(154,141,22);fill-opacity:1"/><path d="M-379.4867259338822,-31.790791436485243L-385.64685217825536,-31.473232480862226L-379.53673103595986,-28.576591482860405z" style="fill:rgb(165,151,24);fill-opacity:1"/><path d="M-380.44558419526277,-47.294758361018665L-380.491682533914,-43.994077699379446L-374.3594467526568,-44.38445848180373z" style="fill:rgb(163,149,23);fill-opacity:1"/><path d="M-389.62662335918503,-48.66004502707014L-389.7718956963128,-37.90672824399529L-379.0457017967132,-38.1069055260375z" style="fill:rgb(48,0,60);fill-opacity:1"/><path d="M-389.77255554764423,-38.940429000760474L-389.61685821238035,-28.197149776114433L-379.0548070921865,-38.78890868770028z" style="fill:rgb(51,0,63);fill-opacity:1"/><path d="M-388.91858765313157,-28.2066770601559L-388.7733153160038,-38.95999384323075L-399.4995092156034,-38.759816561188536z" style="fill:rgb(45,0,55);fill-opacity:1"/><path d="M-388.77265546467237,-37.92629308646556L-388.92835279993625,-48.66957231111161L-399.4904039201301,-38.07781339952576z" style="fill:rgb(42,0,53);fill-opacity:1"/><path d="M-386.7782423510365,-35.00888354738438L-384.96517136036204,-30.78849556145942L-379.0504923669246,-31.116189883995126z" style="fill:rgb(236,215,34);fill-opacity:1"/><path d="M-375.0044857945232,-45.00676757355162L-380.9489010224439,-44.75574004491879L-373.21972973464085,-40.83783333110038z" style="fill:rgb(241,220,35);fill-opacity:1"/><path d="M-384.8782053365702,-45.28466270999118L-386.8304294215958,-41.01844605654302L-379.0852713201572,-41.25621899491483z" style="fill:rgb(229,209,33);fill-opacity:1"/><path d="M-373.1630631121819,-34.7866188852026L-380.9258354667571,-34.584754365187884L-375.08421797266897,-30.583208930570194z" style="fill:rgb(248,227,36);fill-opacity:1"/><path d="M-379.4840824872456,-45.04700943093155L-385.61263329988907,-44.80000728805792L-379.5735933609628,-40.75332423058131z" style="fill:rgb(229,209,33);fill-opacity:1"/><path d="M-380.409343685566,-35.110984892707904L-380.491682533914,-30.73781158838766L-374.3956872623536,-31.06477251174336z" style="fill:rgb(248,227,36);fill-opacity:1"/><path d="M-380.43654695480586,-45.28077981904406L-380.4928453236174,-40.96541459373319L-372.9305221063166,-41.31313334867178z" style="fill:rgb(241,220,35);fill-opacity:1"/><path d="M-387.1282287552377,-38.658951042631024L-386.54679622520655,-33.79598197015283L-379.06021632024283,-34.12778222367272z" style="fill:rgb(270,246,39);fill-opacity:1"/><path d="M-373.4296761222033,-42.00263901736333L-380.9411380840282,-41.73086648931251L-372.8609671230125,-37.1976891992773z" style="fill:rgb(282,257,41);fill-opacity:1"/><path d="M-379.4874878672592,-34.83181589768985L-387.0724979526696,-34.540487122048745L-379.5471224252624,-30.58227916122208z" style="fill:rgb(236,215,34);fill-opacity:1"/><path d="M-386.4739115375173,-42.263892819675185L-387.19091680873584,-37.386997121094346L-379.07041295443395,-37.693184897809466z" style="fill:rgb(267,244,39);fill-opacity:1"/><path d="M-372.79332777232054,-38.41362094578231L-380.93416815093093,-38.15709259967957L-373.5042854059925,-33.59912155836883zM-380.4211535918276,-38.679695425457105L-380.4928453236174,-33.79117485898491L-372.94591546929485,-34.11184495201456z" style="fill:rgb(284,260,41);fill-opacity:1"/><path d="M-379.48661821229416,-42.00604267186224L-387.0577650811566,-41.74421246705371L-379.5627249517404,-37.18093956703719z" style="fill:rgb(267,244,39);fill-opacity:1"/><path d="M-380.4292258143353,-42.25312053664651L-380.49308716638484,-37.381373841790456L-372.43306527874944,-37.70958046014203z" style="fill:rgb(282,257,41);fill-opacity:1"/><path d="M-379.4875045432293,-38.41893599880289L-387.5692711395241,-38.14374662193837L-379.554868687708,-33.60715248308946z" style="fill:rgb(270,246,39);fill-opacity:1"/><path d="M141.2065794203865,-278.32668398345714L141.0613070832587,-267.5733672003823L151.7875009828583,-267.77354448242454z" style="fill:rgb(182,167,26);fill-opacity:1"/><path d="M141.0606472319273,-268.6070679571475L141.2163445671912,-257.8637887325014L151.778395687385,-268.4555476440873z" style="fill:rgb(190,174,27);fill-opacity:1"/><path d="M141.9146151264399,-257.8733160165429L142.05988746356772,-268.62663279961777L131.33369356396813,-268.4264555175755z" style="fill:rgb(168,153,24);fill-opacity:1"/><path d="M142.0605473148991,-267.59293204285257L141.90484997963523,-278.33621126749864L131.34279885944142,-267.74445235591276z" style="fill:rgb(160,146,23);fill-opacity:1"/><path d="M-386.20093057019835,-49.79155771991109L-391.7456374481947,-48.70402703170161L-389.68439946084237,-48.71741189748954z" style="fill:rgb(3,0,4);fill-opacity:1"/><path d="M-388.1440869960119,-49.76154351537064L-384.6377613629168,-48.582077242671204L-382.60192579292743,-48.86937589106039z" style="fill:rgb(5,0,7);fill-opacity:1"/><path d="M-383.4829264000639,-49.13192397378859L-385.58987706060327,-49.03549572913765L-379.68283763569303,-46.30011433540801z" style="fill:rgb(19,0,24);fill-opacity:1"/><path d="M-394.67319075292824,-34.01822743783084L-390.7985839717791,-31.034808924821963L-388.78732581002396,-31.51793772466888z" style="fill:rgb(16,0,20);fill-opacity:1"/><path d="M-389.6823445835251,-31.663726140279774L-391.74879393852115,-31.598999822647457L-386.1998289571892,-30.562785513626462z" style="fill:rgb(7,0,9);fill-opacity:1"/><path d="M-382.5910429750958,-31.60765545340388L-384.66077222771935,-31.678342348894883L-388.131958949041,-30.53951367425493z" style="fill:rgb(9,0,11);fill-opacity:1"/><path d="M-390.1343496446745,-49.566463273627L-394.7095549338674,-46.46491164841558L-391.56551699300576,-46.40421871178236z" style="fill:rgb(14,0,17);fill-opacity:1"/><path d="M-380.2936560758703,-47.232680524672794L-383.3958240177983,-47.082321284105824L-377.8428863732442,-43.047638232415274z" style="fill:rgb(29,0,36);fill-opacity:1"/><path d="M-396.515776483348,-37.28960105646839L-394.00455323808467,-33.00799095295671L-390.9620454427461,-33.37827607503694z" style="fill:rgb(23,0,28);fill-opacity:1"/><path d="M-379.6279117840576,-33.82667123275719L-382.8407977170402,-34.02450330779097L-384.136610558446,-30.751739951282822z" style="fill:rgb(22,0,27);fill-opacity:1"/><path d="M-386.69879969561504,-50.18195652947287L-390.6864165545883,-48.675350507904895L-386.658631361658,-48.35568961172447z" style="fill:rgb(13,0,16);fill-opacity:1"/><path d="M-387.63821482314285,-50.21975094418805L-387.6596834001316,-48.23645712601199L-383.67299579595584,-48.756788578902196z" style="fill:rgb(14,0,17);fill-opacity:1"/><path d="M-386.66111777102304,-32.01294713011506L-390.69234266336326,-31.6273876697318L-386.69038717747503,-30.18517667670684z" style="fill:rgb(17,0,21);fill-opacity:1"/><path d="M-383.66976616603966,-31.702065480389614L-387.95606058690595,-31.922483044117943L-387.3450672662847,-30.200962952046137z" style="fill:rgb(17,0,22);fill-opacity:1"/><path d="M-393.6237259961517,-47.7059627540112L-396.6016142972398,-43.27140060244733L-392.69383396788106,-43.344263496613614z" style="fill:rgb(21,0,26);fill-opacity:1"/><path d="M-378.0813650427877,-44.25494747366298L-381.90683968382723,-44.10582415746661L-377.36190003243615,-39.332722166446665z" style="fill:rgb(35,0,43);fill-opacity:1"/><path d="M-396.9873737838009,-41.02335935926909L-396.2218412838514,-35.997010462829806L-392.4554218043882,-36.32464450598079z" style="fill:rgb(26,0,32);fill-opacity:1"/><path d="M-377.72915518081345,-37.00028210073895L-381.70235643437877,-37.060732580892406L-380.6640557546268,-32.65586659095244z" style="fill:rgb(31,0,38);fill-opacity:1"/><path d="M-395.9913823902266,-44.67784431535456L-397.1329880974884,-39.597701738890265L-393.04480250959574,-39.830827875957276z" style="fill:rgb(25,0,31);fill-opacity:1"/><path d="M-377.1827362311254,-40.66019661586935L-381.3293211877425,-40.58157635601633L-378.33351121491296,-35.69036122356814z" style="fill:rgb(35,0,44);fill-opacity:1"/><path d="M-388.8338757388712,-49.16755428275278L-391.1147154175462,-49.31270982329206L-392.3691741559499,-45.98726993228941z" style="fill:rgb(14,0,17);fill-opacity:1"/><path d="M-385.4504834667028,-49.385136029375914L-382.60747405860343,-46.351481518489685L-379.5980056052962,-46.698976085959345z" style="fill:rgb(19,0,24);fill-opacity:1"/><path d="M-391.69900941758135,-33.90866943272555L-394.7544869124147,-33.74728921363657L-388.9052821704931,-30.94695584546887z" style="fill:rgb(16,0,20);fill-opacity:1"/><path d="M-381.92027273826955,-34.34720971558392L-385.48193942867766,-31.051606071487317L-383.294764151777,-31.17215830025044z" style="fill:rgb(22,0,27);fill-opacity:1"/><path d="M-384.47807270141533,-49.194656353359406L-388.1346741786502,-49.01553869357102L-381.6713493060328,-46.25733899140383z" style="fill:rgb(43,0,54);fill-opacity:1"/><path d="M-392.6812509570111,-34.0797634144231L-389.8360562967344,-31.091556506695593L-386.2133381912477,-31.399654166202993z" style="fill:rgb(44,0,54);fill-opacity:1"/><path d="M-391.1300763295768,-47.24730516375228L-394.45408642010034,-47.275985503762435L-393.36173588472207,-42.83934937367918z" style="fill:rgb(21,0,26);fill-opacity:1"/><path d="M-383.1004693135886,-47.547137223659355L-381.3227220144593,-43.21260601931604L-377.61371126413513,-43.56188361009675z" style="fill:rgb(29,0,36);fill-opacity:1"/><path d="M-392.980991324922,-37.04916467970798L-396.74269531093546,-36.86706836123579L-391.2541524030511,-32.80064823164003z" style="fill:rgb(23,0,28);fill-opacity:1"/><path d="M-380.94407093942806,-37.52530749513137L-383.1852694493164,-32.99021162041357L-379.93950260794776,-33.160348968917106z" style="fill:rgb(31,0,38);fill-opacity:1"/><path d="M-386.6508551867765,-49.33282430104995L-390.62114346906606,-49.111230007024396L-386.7718489560188,-46.0234797302599z" style="fill:rgb(41,0,51);fill-opacity:1"/><path d="M-387.5587021021303,-34.358366045814265L-387.6596834001316,-30.916310206001597L-383.75250851696836,-31.296297835505822z" style="fill:rgb(46,0,57);fill-opacity:1"/><path d="M-392.7045025329463,-44.252360611577046L-396.61752770324364,-44.16869622339047L-393.59714402508257,-39.27243696260874z" style="fill:rgb(25,0,31);fill-opacity:1"/><path d="M-381.4604735366657,-44.616943468596055L-380.96300398168677,-39.58698399964812L-376.95856764520784,-39.90244646195793z" style="fill:rgb(35,0,43);fill-opacity:1"/><path d="M-393.34356996471035,-40.67093514494525L-397.40403228031676,-40.51870429009246L-392.88509422250405,-35.742494760416115z" style="fill:rgb(26,0,32);fill-opacity:1"/><path d="M-380.7333050890699,-41.094097852031815L-381.60638073698664,-35.99751457795545L-377.7558815437625,-36.25340189809242z" style="fill:rgb(35,0,44);fill-opacity:1"/><path d="M-389.718228739287,-49.50609827311497L-392.71818478338946,-46.42388830608772L-386.2942319223168,-46.50560705462225z" style="fill:rgb(41,0,51);fill-opacity:1"/><path d="M-381.63467272268406,-33.90430849828768L-388.08466667275053,-33.82302349152331L-384.56475679066375,-30.87558250201999z" style="fill:rgb(46,0,57);fill-opacity:1"/><path d="M-387.62020402878954,-49.548858058226365L-387.6663023674408,-46.24817739658715L-381.53406658618354,-46.638558179011426z" style="fill:rgb(43,0,54);fill-opacity:1"/><path d="M-386.661345767409,-34.04489113369295L-392.8214720117821,-33.727332178069936L-386.71135086948664,-30.830691180068104z" style="fill:rgb(44,0,54);fill-opacity:1"/><path d="M-382.1791056280499,-47.26086727075932L-388.1235208559707,-47.00983974212648L-380.39434956816757,-43.09193302830809z" style="fill:rgb(64,0,79);fill-opacity:1"/><path d="M-393.95286218456323,-37.262983244592085L-392.13979119388875,-33.04259525866713L-386.22511220045135,-33.37028958120283z" style="fill:rgb(63,0,78);fill-opacity:1"/><path d="M-392.05282517009687,-47.53876240719889L-394.0050492551225,-43.27254575375073L-386.25989115368395,-43.51031869212253z" style="fill:rgb(61,0,75);fill-opacity:1"/><path d="M-380.3376829457086,-37.04071858241031L-388.1004553002839,-36.83885406239559L-382.2588378061957,-32.8373086277779z" style="fill:rgb(66,0,82);fill-opacity:1"/><path d="M-386.65870232077236,-47.30110912813925L-392.7872531334158,-47.05410698526562L-386.74821319448955,-43.00742392778902z" style="fill:rgb(61,0,75);fill-opacity:1"/><path d="M-387.5839635190928,-37.36508458991561L-387.6663023674408,-32.99191128559537L-381.5703070958803,-33.31887220895106z" style="fill:rgb(66,0,82);fill-opacity:1"/><path d="M-394.30284858876445,-40.913050739838724L-393.72141605873327,-36.05008166736053L-386.2348361537696,-36.38188192088043z" style="fill:rgb(72,1,89);fill-opacity:1"/><path d="M-387.61116678833264,-47.534879516251756L-387.6674651571442,-43.2195142909409L-380.1051419398433,-43.56723304587949z" style="fill:rgb(64,0,79);fill-opacity:1"/><path d="M-380.60429595573004,-44.256738714571036L-388.11575791755496,-43.98496618652022L-380.0355869565392,-39.451788896485z" style="fill:rgb(75,1,93);fill-opacity:1"/><path d="M-386.66210770078595,-37.08591559489756L-394.2471177861963,-36.79458681925646L-386.72174225878916,-32.83637885842978z" style="fill:rgb(63,0,78);fill-opacity:1"/><path d="M-393.64853137104404,-44.51799251688289L-394.36553664226255,-39.641096818302046L-386.2450327879607,-39.947284595017166z" style="fill:rgb(71,1,88);fill-opacity:1"/><path d="M-379.96794760584726,-40.66772064299001L-388.1087879844577,-40.411192296887265L-380.6789052395192,-35.85322125557654z" style="fill:rgb(76,1,94);fill-opacity:1"/><path d="M-386.66123804582094,-44.260142369069946L-394.23238491468334,-43.99831216426142L-386.73734478526717,-39.435039264244885z" style="fill:rgb(71,1,88);fill-opacity:1"/><path d="M-387.59577342535437,-40.933795122664804L-387.6674651571442,-36.045274556192616L-380.12053530282157,-36.365944649222264z" style="fill:rgb(76,1,94);fill-opacity:1"/><path d="M-387.6038456478621,-44.50722023385422L-387.6677069999116,-39.635473538998156L-379.60768511227616,-39.96368015734973z" style="fill:rgb(75,1,93);fill-opacity:1"/><path d="M-386.6621243767561,-40.67303569601059L-394.74389097305084,-40.39784631914607L-386.72948852123477,-35.861252180297164z" style="fill:rgb(72,1,89);fill-opacity:1"/><path d="M-382.7668216983938,-59.60616157591099L-388.31152857639023,-58.518630887701526L-386.2502905890379,-58.53201575348946z" style="fill:rgb(3,0,4);fill-opacity:1"/><path d="M-384.70997812420734,-59.57614737137055L-381.2036524911123,-58.39668109867111L-379.16781692112295,-58.68397974706031z" style="fill:rgb(5,0,7);fill-opacity:1"/><path d="M-380.0488175282594,-58.9465278297885L-382.15576818879873,-58.85009958513756L-376.24872876388855,-56.11471819140794z" style="fill:rgb(19,0,24);fill-opacity:1"/><path d="M-391.23908188112375,-43.83283129383075L-387.36447509997464,-40.84941278082188L-385.3532169382195,-41.33254158066879z" style="fill:rgb(16,0,20);fill-opacity:1"/><path d="M-386.2482357117206,-41.47832999627968L-388.31468506671666,-41.41360367864737L-382.76572008538466,-40.377389369626385z" style="fill:rgb(7,0,9);fill-opacity:1"/><path d="M-379.1569341032913,-41.42225930940379L-381.2266633559148,-41.49294620489479L-384.69785007723647,-40.354117530254854z" style="fill:rgb(9,0,11);fill-opacity:1"/><path d="M-386.70024077287,-59.38106712962691L-391.27544606206294,-56.27951550441551L-388.1314081212013,-56.21882256778229z" style="fill:rgb(14,0,17);fill-opacity:1"/><path d="M-376.8595472040658,-57.04728438067272L-379.9617151459938,-56.89692514010574L-374.40877750143966,-52.8622420884152z" style="fill:rgb(29,0,36);fill-opacity:1"/><path d="M-393.0816676115435,-47.10420491246831L-390.5704443662802,-42.82259480895662L-387.5279365709416,-43.192879931036856z" style="fill:rgb(23,0,28);fill-opacity:1"/><path d="M-376.1938029122531,-43.641275088757105L-379.4066888452357,-43.839107163790885L-380.70250168664154,-40.566343807282735z" style="fill:rgb(22,0,27);fill-opacity:1"/><path d="M-383.2646908238105,-59.99656038547278L-387.2523076827838,-58.48995436390481L-383.2245224898535,-58.170293467724385z" style="fill:rgb(13,0,16);fill-opacity:1"/><path d="M-384.2041059513383,-60.03435480018796L-384.22557452832706,-58.051060982011904L-380.2388869241513,-58.57139243490211z" style="fill:rgb(14,0,17);fill-opacity:1"/><path d="M-383.2270088992185,-41.82755098611497L-387.2582337915588,-41.44199152573171L-383.2562783056705,-39.99978053270676z" style="fill:rgb(17,0,21);fill-opacity:1"/><path d="M-380.2356572942351,-41.516669336389526L-384.5219517151014,-41.73708690011785L-383.91095839448013,-40.01556680804606z" style="fill:rgb(17,0,22);fill-opacity:1"/><path d="M-390.1896171243472,-57.52056661001113L-393.16750542543525,-53.08600445844725L-389.2597250960766,-53.158867352613534z" style="fill:rgb(21,0,26);fill-opacity:1"/><path d="M-393.55326491199645,-50.837963215269L-392.7877324120468,-45.81161431882972L-389.0213129325837,-46.13924836198073z" style="fill:rgb(26,0,32);fill-opacity:1"/><path d="M-374.64725617098316,-54.06955132966291L-378.47273081202275,-53.92042801346653L-373.92779116063167,-49.14732602244658z" style="fill:rgb(35,0,43);fill-opacity:1"/><path d="M-374.2950463090089,-46.81488595673886L-378.2682475625743,-46.875336436892326L-377.22994688282233,-42.47047044695236z" style="fill:rgb(31,0,38);fill-opacity:1"/><path d="M-392.557273518422,-54.49244817135449L-393.698879225684,-49.412305594890185L-389.61069363779126,-49.64543173195719z" style="fill:rgb(25,0,31);fill-opacity:1"/><path d="M-373.7486273593209,-50.47480047186927L-377.895212315938,-50.39618021201624L-374.8994023431084,-45.504965079568066z" style="fill:rgb(35,0,44);fill-opacity:1"/><path d="M-385.3997668670667,-58.98215813875269L-387.68060654574174,-59.12731367929197L-388.9350652841454,-55.80187378828934z" style="fill:rgb(14,0,17);fill-opacity:1"/><path d="M-382.01637459489825,-59.19973988537583L-379.17336518679895,-56.16608537448961L-376.1638967334917,-56.51357994195927z" style="fill:rgb(19,0,24);fill-opacity:1"/><path d="M-388.26490054577687,-43.723273288725466L-391.3203780406102,-43.56189306963648L-385.4711732986886,-40.76155970146878z" style="fill:rgb(16,0,20);fill-opacity:1"/><path d="M-378.48616386646506,-44.161813571583835L-382.04783055687307,-40.86620992748722L-379.86065527997255,-40.986762156250364z" style="fill:rgb(22,0,27);fill-opacity:1"/><path d="M-381.0439638296108,-59.00926020935932L-384.70056530684565,-58.83014254957093L-378.23724043422834,-56.071942847403754z" style="fill:rgb(43,0,54);fill-opacity:1"/><path d="M-389.24714208520663,-43.89436727042301L-386.4019474249299,-40.9061603626955L-382.7792293194432,-41.214258022202905z" style="fill:rgb(44,0,54);fill-opacity:1"/><path d="M-387.6959674577723,-57.06190901975221L-391.01997754829586,-57.09058935976236L-389.9276270129176,-52.6539532296791z" style="fill:rgb(21,0,26);fill-opacity:1"/><path d="M-379.6663604417841,-57.36174107965928L-377.88861314265483,-53.02720987531597L-374.1796023923306,-53.37648746609666z" style="fill:rgb(29,0,36);fill-opacity:1"/><path d="M-389.5468824531175,-46.8637685357079L-393.3085864391309,-46.68167221723571L-387.8200435312466,-42.615252087639945z" style="fill:rgb(23,0,28);fill-opacity:1"/><path d="M-377.5099620676236,-47.33991135113129L-379.75116057751194,-42.80481547641348L-376.5053937361433,-42.97495282491702z" style="fill:rgb(31,0,38);fill-opacity:1"/><path d="M-383.21674631497194,-59.147428157049866L-387.1870345972616,-58.9258338630243L-383.33774008421426,-55.838083586259835z" style="fill:rgb(41,0,51);fill-opacity:1"/><path d="M-384.1245932303258,-44.17296990181418L-384.22557452832706,-40.73091406200151L-380.3183996451638,-41.11090169150573z" style="fill:rgb(46,0,57);fill-opacity:1"/><path d="M-389.9094610929059,-50.48553900094517L-393.9699234085123,-50.33330814609238L-389.45098535069957,-45.557098616416035z" style="fill:rgb(26,0,32);fill-opacity:1"/><path d="M-389.27039366114184,-54.066964467576966L-393.1834188314391,-53.98330007939039L-390.1630351532781,-49.087040818608656z" style="fill:rgb(25,0,31);fill-opacity:1"/><path d="M-378.0263646648612,-54.431547324595975L-377.5288951098823,-49.40158785564804L-373.52445877340335,-49.71705031795785z" style="fill:rgb(35,0,43);fill-opacity:1"/><path d="M-377.29919621726543,-50.90870170803173L-378.17227186518215,-45.81211843395537L-374.32177267195794,-46.06800575409235z" style="fill:rgb(35,0,44);fill-opacity:1"/><path d="M-386.2841198674825,-59.32070212911487L-389.284075911585,-56.23849216208765L-382.86012305051224,-56.32021091062219z" style="fill:rgb(41,0,51);fill-opacity:1"/><path d="M-378.2005638508796,-43.7189123542876L-384.650557800946,-43.63762734752322L-381.1306479188592,-40.6901863580199z" style="fill:rgb(46,0,57);fill-opacity:1"/><path d="M-384.186095156985,-59.36346191422628L-384.23219349563624,-56.06278125258707L-378.09995771437906,-56.45316203501136z" style="fill:rgb(43,0,54);fill-opacity:1"/><path d="M-383.22723689560445,-43.85949498969286L-389.3873631399776,-43.54193603406984L-383.2772419976821,-40.64529503606802z" style="fill:rgb(44,0,54);fill-opacity:1"/><path d="M-378.7449967562454,-57.07547112675925L-384.68941198416616,-56.824443598126415L-376.9602406963631,-52.906536884308004z" style="fill:rgb(64,0,79);fill-opacity:1"/><path d="M-390.51875331275875,-47.077587100592005L-388.7056823220843,-42.85719911466704L-382.7910033286468,-43.184893437202746z" style="fill:rgb(63,0,78);fill-opacity:1"/><path d="M-388.6187162982924,-57.35336626319881L-390.57094038331803,-53.08714960975065L-382.82578228187936,-53.32492254812246z" style="fill:rgb(61,0,75);fill-opacity:1"/><path d="M-376.9035740739041,-46.85532243841023L-384.66634642847936,-46.65345791839552L-378.8247289343912,-42.65191248377781z" style="fill:rgb(66,0,82);fill-opacity:1"/><path d="M-383.2245934489678,-57.11571298413918L-389.3531442616113,-56.868710841265546L-383.314104322685,-52.82202778378894z" style="fill:rgb(61,0,75);fill-opacity:1"/><path d="M-384.14985464728824,-47.17968844591553L-384.23219349563624,-42.80651514159528L-378.1361982240758,-43.13347606495098z" style="fill:rgb(66,0,82);fill-opacity:1"/><path d="M389.59153715894064,258.5115411722387L393.09786279203564,259.6910074449381L395.1336983620252,259.4037087965489z" style="fill:rgb(21,19,3);fill-opacity:1"/><path d="M394.2526977548887,259.14116071382074L392.14574709434925,259.2375889584717L398.05278651925937,261.9729703522013z" style="fill:rgb(73,66,10);fill-opacity:1"/><path d="M388.0532795714274,276.6093585473295L385.98683021643126,276.67408486496186L391.5357951977633,277.71029917398283z" style="fill:rgb(27,24,3);fill-opacity:1"/><path d="M395.1445811798568,276.6654292342054L393.07485192723317,276.5947423387144L389.6036652059115,277.7335710133544z" style="fill:rgb(34,31,5);fill-opacity:1"/><path d="M391.53469358475417,258.4815269676982L385.9899867067577,259.5690576559077L388.05122469411015,259.55567279011984z" style="fill:rgb(14,13,2);fill-opacity:1"/><path d="M383.0624334020243,274.2548572497785L386.9370401831733,277.2382757627873L388.94829834492856,276.75514696294044z" style="fill:rgb(63,57,9);fill-opacity:1"/><path d="M-384.1770579165281,-57.34948337225168L-384.23335628533965,-53.03411814694082L-376.6710330680388,-53.38183690187941z" style="fill:rgb(64,0,79);fill-opacity:1"/><path d="M-377.17018708392555,-54.071342570570955L-384.6816490457504,-53.79957004252014L-376.6014780847347,-49.26639275248492z" style="fill:rgb(75,1,93);fill-opacity:1"/><path d="M-390.86873971695996,-50.727654595838644L-390.2873071869288,-45.86468552336046L-382.80072728196507,-46.196485776880344z" style="fill:rgb(72,1,89);fill-opacity:1"/><path d="M-383.2279988289814,-46.90051945089748L-390.81300891439184,-46.60919067525637L-383.2876333869846,-42.6509827144297z" style="fill:rgb(63,0,78);fill-opacity:1"/><path d="M-376.5338387340428,-50.48232449898993L-384.67467911265317,-50.2257961528872L-377.24479636771474,-45.667825111576455z" style="fill:rgb(76,1,94);fill-opacity:1"/><path d="M-390.21442249923956,-54.33259637288281L-390.9314277704581,-49.455700674301966L-382.8109239161562,-49.76188845101709z" style="fill:rgb(71,1,88);fill-opacity:1"/><path d="M387.6012745102779,258.70662141398236L383.0260692210851,261.8081730391937L386.1701071619467,261.8688659758269z" style="fill:rgb(52,47,7);fill-opacity:1"/><path d="M397.44196807908213,261.0404041629365L394.3398001371542,261.19076340350347L399.8927377817084,265.22544645519406z" style="fill:rgb(110,101,16);fill-opacity:1"/><path d="M381.2198476716045,270.9834836311409L383.73107091686785,275.2650937346526L386.77357871220636,274.8948086125724z" style="fill:rgb(87,79,12);fill-opacity:1"/><path d="M398.10771237089483,274.4464134548521L394.89482643791234,274.24858137981835L393.59901359650655,277.5213447363265z" style="fill:rgb(84,76,12);fill-opacity:1"/><path d="M391.0368244593375,258.0911281581364L387.04920760036424,259.59773417970445L391.0769927932945,259.9173950758849z" style="fill:rgb(51,46,7);fill-opacity:1"/><path d="M390.0974093318097,258.05333374342126L390.0759407548209,260.03662756159736L394.0626283589967,259.51629610870714z" style="fill:rgb(54,49,7);fill-opacity:1"/><path d="M391.0745063839295,276.26013755749426L387.04328149158925,276.6456970178775L391.0452369774775,278.0879080109024z" style="fill:rgb(64,58,9);fill-opacity:1"/><path d="M394.06585798891285,276.5710192072197L389.77956356804657,276.35060164349136L390.39055688866785,278.07212173556314z" style="fill:rgb(67,61,9);fill-opacity:1"/><path d="M384.11189815880084,260.56712193359806L381.1340098577127,265.001684085162L385.04179018707134,264.92882119099573z" style="fill:rgb(80,73,11);fill-opacity:1"/><path d="M399.65425911216494,264.0181372139464L395.82878447112535,264.1672605301427L400.37372412251625,268.9403625211626z" style="fill:rgb(130,119,19);fill-opacity:1"/><path d="M380.7482503711515,267.2497253283402L381.51378287110117,272.2760742247795L385.2802023505642,271.9484401816285z" style="fill:rgb(98,89,14);fill-opacity:1"/><path d="M400.0064689741392,271.27280258687034L396.0332677205738,271.2123521067169L397.07156840032553,275.6172180966569z" style="fill:rgb(117,107,17);fill-opacity:1"/><path d="M-383.2271291740164,-54.074746225069866L-390.79827604287885,-53.81291602026133L-383.30323591346263,-49.24964312024482z" style="fill:rgb(71,1,88);fill-opacity:1"/><path d="M-384.1616645535498,-50.74839897866473L-384.23335628533965,-45.859878412192536L-376.6864264310171,-46.180548505222184z" style="fill:rgb(76,1,94);fill-opacity:1"/><path d="M381.744241764726,263.59524037225475L380.602636057464,268.675382948719L384.6908216453568,268.44225681165204z" style="fill:rgb(95,87,13);fill-opacity:1"/><path d="M400.5528879238271,267.6128880717399L396.4063029672099,267.69150833159296L399.4021129400396,272.5827234640412z" style="fill:rgb(133,121,19);fill-opacity:1"/><path d="M-384.16973677605756,-54.32182408985414L-384.2335981281071,-49.45007739499808L-376.1735762404717,-49.77828401334965z" style="fill:rgb(75,1,93);fill-opacity:1"/><path d="M-383.22801550495154,-50.48763955201051L-391.30978210124636,-50.21245017514599L-383.29537964943023,-45.675856036297084z" style="fill:rgb(72,1,89);fill-opacity:1"/><path d="M388.9017484160813,259.10553040485655L386.6209087374062,258.96037486431726L385.36644999900255,262.2858147553199z" style="fill:rgb(52,47,7);fill-opacity:1"/><path d="M392.2851406882497,258.88794865823337L395.1281500963491,261.92160316911963L398.1376185496562,261.57410860165z" style="fill:rgb(73,66,10);fill-opacity:1"/><path d="M395.815351416683,273.9258749720254L392.2536847262749,277.221478616122L394.44086000317554,277.10092638735887z" style="fill:rgb(84,76,12);fill-opacity:1"/><path d="M386.0366147373711,274.3644152548838L382.98113724253784,274.5257954739728L388.83034198445944,277.3261288421404z" style="fill:rgb(63,57,9);fill-opacity:1"/><path d="M393.2575514535372,259.0784283342499L389.60094997630233,259.2575459940383L396.0642748489197,262.0157456962055z" style="fill:rgb(163,149,23);fill-opacity:1"/><path d="M385.05437319794135,274.1933212731862L387.8995678582181,277.18152818091374L391.5222859637048,276.8734305214063z" style="fill:rgb(165,151,24);fill-opacity:1"/><path d="M386.6055478253757,261.025779523857L383.2815377348522,260.99709918384684L384.3738882702303,265.4337353139302z" style="fill:rgb(80,73,11);fill-opacity:1"/><path d="M394.63515484136394,260.7259474639499L396.41290214049326,265.06047866829334L400.12191289081744,264.71120107751256z" style="fill:rgb(110,101,16);fill-opacity:1"/><path d="M384.7546328300304,271.2239200079013L380.99292884401706,271.4060163263735L386.4814717519014,275.47243645596933z" style="fill:rgb(87,79,12);fill-opacity:1"/><path d="M396.7915532155246,270.7477771924779L394.5503547056361,275.2828730671958L397.7961215470046,275.11273571869225z" style="fill:rgb(117,107,17);fill-opacity:1"/><path d="M391.08476896817604,258.9402603865594L387.11448068588646,259.16185468058495L390.9637751989337,262.2496049573494z" style="fill:rgb(154,141,22);fill-opacity:1"/><path d="M390.1769220528222,273.91471864179505L390.0759407548209,277.3567744816077L393.98311563798416,276.9767868521035z" style="fill:rgb(174,159,25);fill-opacity:1"/><path d="M385.0311216220061,264.0207240760323L381.1180964517089,264.10438846421886L384.13848012986995,269.00064772500053z" style="fill:rgb(95,87,13);fill-opacity:1"/><path d="M396.27515061828694,263.65614121901325L396.7726201732656,268.6861006879612L400.7770565097446,268.37063822565136z" style="fill:rgb(130,119,19);fill-opacity:1"/><path d="M384.3920541902422,267.60214954266405L380.3315918746357,267.7543803975168L384.8505299324483,272.5305899271932z" style="fill:rgb(98,89,14);fill-opacity:1"/><path d="M397.00231906588243,267.17898683557746L396.129243417966,272.27557010965387L399.9797426111901,272.0196827895169z" style="fill:rgb(133,121,19);fill-opacity:1"/><path d="M388.01739541566553,258.76698641449434L385.017439371563,261.8491963815216L391.44139223263574,261.76747763298704z" style="fill:rgb(154,141,22);fill-opacity:1"/><path d="M396.10095143226846,274.36877618932164L389.650957482202,274.45006119608604L393.17086736428877,277.3975021855893z" style="fill:rgb(174,159,25);fill-opacity:1"/><path d="M390.1154201261629,258.724226629383L390.06932178751174,262.02490729102215L396.20155756876903,261.63452650859784z" style="fill:rgb(163,149,23);fill-opacity:1"/><path d="M391.07427838754353,274.2281935539164L384.9141521431704,274.5457525095394L391.0242732854659,277.44239350754117z" style="fill:rgb(165,151,24);fill-opacity:1"/><path d="M395.5565185269026,261.01221741685L389.6121032989818,261.2632449454828L397.341274586785,265.18115165930124z" style="fill:rgb(241,220,35);fill-opacity:1"/><path d="M383.7827619703892,271.0101014430172L385.5958329610637,275.23048942894224L391.51051195450117,274.9027951064065z" style="fill:rgb(236,215,34);fill-opacity:1"/><path d="M397.397941209244,271.232366105199L389.6351688546686,271.43423062521373L395.47678634875683,275.4357760598314z" style="fill:rgb(248,227,36);fill-opacity:1"/><path d="M385.6827989848556,260.73432228041037L383.7305748998299,265.00053893385865L391.47573300126857,264.7627659954868zM391.07692183418015,260.97197555947L384.9483710215367,261.2189777023437L390.98741096046297,265.2656607598203z" style="fill:rgb(229,209,33);fill-opacity:1"/><path d="M390.15166063585974,270.9080000976937L390.06932178751174,275.28117340201396L396.1653170590722,274.9542124786583z" style="fill:rgb(248,227,36);fill-opacity:1"/><path d="M397.13132819922254,264.0163459730383L389.61986623739756,264.2881185010891L397.7000371984132,268.82129579112427z" style="fill:rgb(282,257,41);fill-opacity:1"/><path d="M391.07351645416657,271.18716909271177L383.4885063687561,271.47849786835286L391.01388189616335,275.4367058291795z" style="fill:rgb(236,215,34);fill-opacity:1"/><path d="M390.1244573666199,260.73820517135755L390.0681589978083,265.0535703966684L397.6304822151093,264.70585164172985z" style="fill:rgb(241,220,35);fill-opacity:1"/><path d="M383.4327755661881,267.36003394777055L384.0142080962191,272.22300302024877L391.5007880011829,271.8912027667289z" style="fill:rgb(270,246,39);fill-opacity:1"/><path d="M384.0870927839083,263.75509217072647L383.37008751269,268.63198786930724L391.4905913669918,268.3258000925921z" style="fill:rgb(267,244,39);fill-opacity:1"/><path d="M397.76767654910515,267.60536404461925L389.6268361704948,267.861892390722L397.05671891543335,272.4198634320328z" style="fill:rgb(284,260,41);fill-opacity:1"/><path d="M391.0743861091316,264.0129423185394L383.50323924026907,264.2747725233479L390.99827936968535,268.8380454233644z" style="fill:rgb(267,244,39);fill-opacity:1"/><path d="M390.13985072959815,267.33928956494447L390.0681589978083,272.2278101314167L397.615088852131,271.90714003838707z" style="fill:rgb(284,260,41);fill-opacity:1"/><path d="M390.1317785070904,263.7658644537551L390.0679171550409,268.63761114861114L398.12793904267625,268.30940453025954z" style="fill:rgb(282,257,41);fill-opacity:1"/><path d="M391.07349977819644,267.6000489915987L382.9917331819017,267.8752383684632L391.00613563371775,272.4118325073121z" style="fill:rgb(270,246,39);fill-opacity:1"/><path d="M-374.91131207751346,-61.92460165962506L-375.05658441464124,-51.17128487655021L-364.33039051504164,-51.37146215859242z" style="fill:rgb(48,0,60);fill-opacity:1"/><path d="M-375.05724426597266,-52.204985633315395L-374.9015469307088,-41.46170640866934L-364.3394958105149,-52.0534653202552z" style="fill:rgb(51,0,63);fill-opacity:1"/><path d="M-374.20327637146,-41.47123369271081L-374.0580040343322,-52.22455047578567L-384.78419793393186,-52.02437319374346z" style="fill:rgb(45,0,55);fill-opacity:1"/><path d="M-374.0573441830008,-51.190849719020484L-374.2130415182647,-61.93412894366653L-384.7750926384586,-51.34237003208068z" style="fill:rgb(42,0,53);fill-opacity:1"/><path d="M-378.7654541871644,-60.068143716322695L-378.91072652429216,-49.31482693324784L-368.1845326246925,-49.515004215290055z" style="fill:rgb(48,0,60);fill-opacity:1"/><path d="M-378.9113863756236,-50.34852769001303L-378.7556890403597,-39.605248465366984L-368.19363792016577,-50.19700737695283z" style="fill:rgb(51,0,63);fill-opacity:1"/><path d="M-378.0574184811109,-39.61477574940845L-377.91214614398314,-50.3680925324833L-388.63834004358273,-50.16791525044109z" style="fill:rgb(45,0,55);fill-opacity:1"/><path d="M-377.9114862926517,-49.33439177571812L-378.0671836279156,-60.07767100036416L-388.62923474810947,-49.48591208877831z" style="fill:rgb(42,0,53);fill-opacity:1"/><path d="M-85.3926173041346,-57.58911298875574L-85.53788964126241,-46.835796205680886L-74.8116957416628,-47.0359734877231z" style="fill:rgb(182,167,26);fill-opacity:1"/><path d="M-85.5385494925938,-47.86949696244607L-85.38285215732992,-37.12621773780002L-74.82080103713609,-47.717976649385875z" style="fill:rgb(190,174,27);fill-opacity:1"/><path d="M-84.6845815980812,-37.13574502184149L-84.53930926095339,-47.889061804916345L-95.265503160553,-47.68888452287413z" style="fill:rgb(168,153,24);fill-opacity:1"/><path d="M-84.538649409622,-46.85536104815116L-84.69434674488588,-57.598640272797205L-95.2563978650797,-47.006881361211356z" style="fill:rgb(160,146,23);fill-opacity:1"/><path d="M-115.19334966664528,-184.4069842237558L-120.73805654464167,-183.3194535355463L-118.67681855728925,-183.33283840133424z" style="fill:rgb(14,13,2);fill-opacity:1"/><path d="M-117.13650609245877,-184.37697001921538L-113.63018045936374,-183.1975037465159L-111.59434488937433,-183.48480239490507z" style="fill:rgb(21,19,3);fill-opacity:1"/><path d="M-112.4753454965108,-183.7473504776333L-114.58229615705018,-183.65092223298234L-108.67525673213996,-180.9155408392527z" style="fill:rgb(73,66,10);fill-opacity:1"/><path d="M-123.66560984937512,-168.63365394167553L-119.79100306822608,-165.65023542866666L-117.77974490647088,-166.13336422851359z" style="fill:rgb(63,57,9);fill-opacity:1"/><path d="M-118.67476367997197,-166.27915264412448L-120.74121303496811,-166.21442632649214L-115.1922480536361,-165.1782120174712z" style="fill:rgb(27,24,3);fill-opacity:1"/><path d="M-111.58346207154267,-166.22308195724858L-113.65319132416622,-166.2937688527396L-117.12437804548796,-165.15494017809965z" style="fill:rgb(34,31,5);fill-opacity:1"/><path d="M-119.12676874112144,-184.1818897774717L-123.70197403031432,-181.08033815226028L-120.55793608945272,-181.01964521562707z" style="fill:rgb(52,47,7);fill-opacity:1"/><path d="M-109.2860751723172,-181.8481070285175L-112.3882431142452,-181.69774778795053L-106.83530546969108,-177.66306473626z" style="fill:rgb(110,101,16);fill-opacity:1"/><path d="M-125.50819557979491,-171.9050275603131L-122.99697233453156,-167.6234174568014L-119.95446453919305,-167.99370257888162z" style="fill:rgb(87,79,12);fill-opacity:1"/><path d="M-108.6203308805045,-168.44209773660188L-111.83321681348708,-168.63992981163568L-113.12902965489295,-165.36716645512752z" style="fill:rgb(84,76,12);fill-opacity:1"/><path d="M-115.69121879206197,-184.7973830333176L-119.67883565103521,-183.29077701174958L-115.65105045810488,-182.97111611556917z" style="fill:rgb(51,46,7);fill-opacity:1"/><path d="M-116.63063391958977,-184.8351774480328L-116.65210249657848,-182.8518836298567L-112.66541489240275,-183.37221508274686z" style="fill:rgb(54,49,7);fill-opacity:1"/><path d="M-115.65353686746992,-166.62837363395977L-119.68476175981016,-166.2428141735765L-115.68280627392198,-164.80060318055155z" style="fill:rgb(64,58,9);fill-opacity:1"/><path d="M-112.66218526248653,-166.31749198423432L-116.94847968335284,-166.53790954796264L-116.33748636273162,-164.81638945589086z" style="fill:rgb(67,61,9);fill-opacity:1"/><path d="M-122.61614509259857,-182.3213892578559L-125.59403339368671,-177.88682710629203L-121.68625306432797,-177.95969000045835z" style="fill:rgb(80,73,11);fill-opacity:1"/><path d="M-107.07378413923452,-178.8703739775077L-110.89925878027414,-178.72125066131133L-106.3543191288831,-173.9481486702914z" style="fill:rgb(130,119,19);fill-opacity:1"/><path d="M-125.97979288024781,-175.6387858631138L-125.21426038029827,-170.6124369666745L-121.44784090083516,-170.94007100982552z" style="fill:rgb(98,89,14);fill-opacity:1"/><path d="M-106.72157427726027,-171.61570860458363L-110.69477553082568,-171.6761590847371L-109.65647485107378,-167.27129309479716z" style="fill:rgb(117,107,17);fill-opacity:1"/><path d="M-124.98380148667341,-179.29327081919928L-126.12540719393535,-174.21312824273502L-122.0372216060427,-174.446254379802z" style="fill:rgb(95,87,13);fill-opacity:1"/><path d="M-106.17515532757228,-175.2756231197141L-110.32174028418943,-175.19700285986107L-107.32593031135983,-170.30578772741282z" style="fill:rgb(133,121,19);fill-opacity:1"/><path d="M-117.82629483531812,-183.78298078659748L-120.10713451399316,-183.92813632713677L-121.36159325239684,-180.6026964361341z" style="fill:rgb(52,47,7);fill-opacity:1"/><path d="M-114.44290256314969,-184.0005625332206L-111.59989315505028,-180.9669080223344L-108.59042470174317,-181.31440258980405z" style="fill:rgb(73,66,10);fill-opacity:1"/><path d="M-120.69142851402833,-168.52409593657023L-123.7469060088616,-168.36271571748125L-117.89770126693995,-165.5623823493136z" style="fill:rgb(63,57,9);fill-opacity:1"/><path d="M-110.91269183471644,-168.96263621942862L-114.47435852512456,-165.66703257533203L-112.2871832482239,-165.78758480409513z" style="fill:rgb(84,76,12);fill-opacity:1"/><path d="M-113.47049179786224,-183.8100828572041L-117.12709327509708,-183.63096519741572L-110.66376840247973,-180.87276549524853z" style="fill:rgb(163,149,23);fill-opacity:1"/><path d="M-121.67367005345808,-168.69518991826777L-118.82847539318128,-165.7069830105403L-115.20575728769464,-166.0150806700477z" style="fill:rgb(165,151,24);fill-opacity:1"/><path d="M-120.12249542602373,-181.862731667597L-123.44650551654725,-181.89141200760713L-122.35415498116903,-177.4547758775239z" style="fill:rgb(80,73,11);fill-opacity:1"/><path d="M-112.0928884100355,-182.16256372750405L-110.31514111090623,-177.82803252316077L-106.60613036058197,-178.17731011394147z" style="fill:rgb(110,101,16);fill-opacity:1"/><path d="M-121.97341042136892,-171.6645911835527L-125.73511440738233,-171.4824948650805L-120.24657149949806,-167.4160747354847z" style="fill:rgb(87,79,12);fill-opacity:1"/><path d="M-109.93649003587495,-172.14073399897606L-112.17768854576336,-167.60563812425826L-108.93192170439468,-167.7757754727618z" style="fill:rgb(117,107,17);fill-opacity:1"/><path d="M-115.64327428322342,-183.94825080489466L-119.61356256551299,-183.72665651086908L-115.76426805246565,-180.6389062341046z" style="fill:rgb(154,141,22);fill-opacity:1"/><path d="M-116.55112119857723,-168.97379254965895L-116.65210249657848,-165.5317367098463L-112.74492761341529,-165.9117243393505z" style="fill:rgb(174,159,25);fill-opacity:1"/><path d="M-121.69692162939324,-178.86778711542178L-125.60994679969052,-178.7841227272352L-122.5895631215295,-173.88786346645347z" style="fill:rgb(95,87,13);fill-opacity:1"/><path d="M-110.45289263311257,-179.23236997244078L-109.95542307813372,-174.20241050349287L-105.95098674165477,-174.51787296580267z" style="fill:rgb(130,119,19);fill-opacity:1"/><path d="M-122.33598906115724,-175.28636164878998L-126.39645137676368,-175.1341307939372L-121.87751331895103,-170.35792126426082z" style="fill:rgb(98,89,14);fill-opacity:1"/><path d="M-109.7257241855169,-175.70952435587657L-110.5987998334335,-170.61294108180016L-106.74830064020934,-170.8688284019371z" style="fill:rgb(133,121,19);fill-opacity:1"/><path d="M-118.71064783573387,-184.12152477695966L-121.71060387983643,-181.03931480993242L-115.2866510187637,-181.12103355846696z" style="fill:rgb(154,141,22);fill-opacity:1"/><path d="M-110.62709181913098,-168.5197350021324L-117.07708576919747,-168.438449995368L-113.5571758871106,-165.4910090058647z" style="fill:rgb(174,159,25);fill-opacity:1"/><path d="M-116.61262312523648,-184.16428456207106L-116.6587214638877,-180.86360390043185L-110.52648568263041,-181.25398468285613z" style="fill:rgb(163,149,23);fill-opacity:1"/><path d="M-115.65376486385588,-168.66031763753764L-121.81389110822902,-168.34275868191463L-115.70376996593357,-165.4461176839128z" style="fill:rgb(165,151,24);fill-opacity:1"/><path d="M-111.17152472449683,-181.87629377460402L-117.11593995241759,-181.62526624597118L-109.38676866461448,-177.70735953215282z" style="fill:rgb(241,220,35);fill-opacity:1"/><path d="M-122.94528128101017,-171.87840974843678L-121.1322102903357,-167.65802176251182L-115.21753129689826,-167.98571608504753z" style="fill:rgb(236,215,34);fill-opacity:1"/><path d="M-109.3301020421555,-171.656145086255L-117.0928743967308,-171.4542805662403L-111.2512569026426,-167.45273513162257z" style="fill:rgb(248,227,36);fill-opacity:1"/><path d="M-121.04524426654385,-182.15418891104358L-122.99746835156945,-177.88797225759546L-115.25231025013083,-178.12574519596726zM-115.65112141721926,-181.91653563198395L-121.77967222986274,-181.66953348911034L-115.74063229093647,-177.62285043163374z" style="fill:rgb(229,209,33);fill-opacity:1"/><path d="M-116.57638261553967,-171.9805110937603L-116.6587214638877,-167.60733778944007L-110.56272619232722,-167.93429871279577z" style="fill:rgb(248,227,36);fill-opacity:1"/><path d="M-116.60358588477956,-182.15030602009645L-116.6598842535911,-177.83494079478564L-109.09756103629019,-178.1826595497242z" style="fill:rgb(241,220,35);fill-opacity:1"/><path d="M-109.59671505217696,-178.87216521841574L-117.10817701400188,-178.60039269036494L-109.0280060529861,-174.06721540032976z" style="fill:rgb(282,257,41);fill-opacity:1"/><path d="M-115.65452679723283,-171.70134209874226L-123.23953688264325,-171.41001332310114L-115.71416135523612,-167.45180536227448z" style="fill:rgb(236,215,34);fill-opacity:1"/><path d="M-123.29526768521136,-175.52847724368348L-122.71383515518022,-170.66550817120523L-115.2272552502165,-170.9973084247251z" style="fill:rgb(270,246,39);fill-opacity:1"/><path d="M-122.64095046749098,-179.13341902072762L-123.35795573870944,-174.2565233221468L-115.23745188440766,-174.5627110988619z" style="fill:rgb(267,244,39);fill-opacity:1"/><path d="M-108.9603667022942,-175.28314714683475L-117.1012070809046,-175.02661880073202L-109.67132433596615,-170.46864775942123z" style="fill:rgb(284,260,41);fill-opacity:1"/><path d="M-115.65365714226786,-178.87556887291467L-123.22480401113026,-178.61373866810615L-115.72976388171408,-174.05046576808962z" style="fill:rgb(267,244,39);fill-opacity:1"/><path d="M-116.58819252180129,-175.54922162650956L-116.6598842535911,-170.66070106003733L-109.11295439926846,-170.98137115306693z" style="fill:rgb(284,260,41);fill-opacity:1"/><path d="M-116.59626474430902,-179.12264673769894L-116.66012609635851,-174.2509000428429L-108.6001042087231,-174.5791066611945z" style="fill:rgb(282,257,41);fill-opacity:1"/><text x="-405.1790913157966" y="291.24833948054146" z="-0.9956345076211796" font-family="Verdana" font-size="13" fill="rgb(0,0,0)">Axis 3 (9.366 %)</text><path d="M-115.654543473203,-175.28846219985533L-123.73631006949776,-175.0132728229908L-115.72190761768165,-170.47667868414186z" style="fill:rgb(270,246,39);fill-opacity:1"/></svg>